<svg width="34" height="34" viewBox="0 0 34 34" fill="none" xmlns="http://www.w3.org/2000/svg">
<rect width="34" height="34" rx="4.25" fill="#24A548"/>
<path d="M12.8276 15.1992V11.271C12.8276 10.8401 12.4779 10.3941 12.047 10.3941H10.5517V7.13805C10.5517 6.50916 10.0419 6.00012 9.41379 6.00012C8.78566 6.00012 8.27586 6.50916 8.27586 7.13805V10.3941H6.78062C6.34972 10.3941 6 10.8401 6 11.271V15.1992C6 17.0244 7.58855 18.5029 9.41379 18.5029C11.239 18.5029 12.8276 17.0244 12.8276 15.1992Z" fill="white"/>
<path d="M23.4483 11.2285V14.6719C23.8185 14.5619 24.2099 14.5012 24.6158 14.5012C25.0004 14.5012 25.3706 14.5574 25.7242 14.6552V11.2285C25.7242 8.24792 23.6046 6.00012 20.7931 6.00012C17.9817 6.00012 15.8621 8.24792 15.8621 11.2285V22.6139C15.8621 24.0818 14.9502 25.5665 13.2069 25.5665C11.4636 25.5665 10.5517 24.0818 10.5517 22.6139V19.1713C10.1815 19.2813 9.79009 19.342 9.38422 19.342C8.9996 19.342 8.6294 19.2858 8.27588 19.1872V22.6139C8.27588 25.5945 10.3955 27.8423 13.2069 27.8423C16.0184 27.8423 18.1379 25.5945 18.1379 22.6139V11.2285C18.1379 9.76136 19.0498 8.27598 20.7931 8.27598C22.5364 8.27598 23.4483 9.76136 23.4483 11.2285Z" fill="white"/>
<path d="M24.5862 15.3395C22.7609 15.3395 21.1724 16.8188 21.1724 18.644V22.5714C21.1724 23.0023 21.5221 23.2906 21.953 23.2906H23.4482V26.7044C23.4482 27.3333 23.958 27.8423 24.5862 27.8423C25.2143 27.8423 25.7241 27.3333 25.7241 26.7044V23.2906H27.2193C27.6502 23.2906 27.9999 23.0023 27.9999 22.5714V18.644C27.9999 16.8188 26.4114 15.3395 24.5862 15.3395Z" fill="white"/>
</svg>
