<svg width="40" height="40" viewBox="0 0 40 40" fill="none" xmlns="http://www.w3.org/2000/svg">
<rect width="40" height="40" rx="5" fill="#24A548"/>
<path d="M31.2304 22.752L29.0381 19.4208C28.9242 19.2215 28.8672 18.9937 28.8388 18.766C28.4686 14.666 25.2513 11.3918 21.1514 10.9932C21.2368 11.8473 20.8951 12.7015 20.2403 13.2709L18.7882 14.4952L19.2438 16.3459C19.4431 17.1431 19.2438 17.9687 18.7313 18.6236C18.2188 19.25 17.4501 19.6486 16.6244 19.6486C16.1404 19.6486 15.6563 19.5347 15.2293 19.2784L13.6064 18.2819L12.012 19.2784C11.955 19.3354 11.8696 19.3639 11.7842 19.3923C11.7842 19.4493 11.7842 19.4778 11.7842 19.5347C11.7842 22.3534 13.1224 25.0867 15.2293 26.8804C15.4855 27.1082 15.6279 27.3929 15.6279 27.7346V32.6317C15.6279 33.0303 15.9411 33.3435 16.3112 33.372L23.6854 33.9984C24.1409 34.0268 24.5111 33.6852 24.5111 33.2581V29.7845C24.5111 29.5568 24.7104 29.3859 24.9097 29.3859H27.4721C28.2693 29.3859 28.8957 28.7311 28.8957 27.9623V24.4888C28.8957 24.3464 29.0096 24.2041 29.1804 24.2041H30.4332C31.2019 24.2325 31.6575 23.3784 31.2304 22.752Z" fill="white"/>
<path d="M14.0901 16.3459L16.2539 17.6556C16.8518 18.0257 17.6206 17.4847 17.4497 16.8014L16.8518 14.3528C16.7949 14.0681 16.8803 13.7549 17.1081 13.5556L19.0441 11.9043C19.5851 11.4487 19.3004 10.5661 18.5886 10.5091L16.0546 10.3098C15.7699 10.2814 15.4852 10.1105 15.3713 9.82582L14.4032 7.49114C14.1185 6.83629 13.2074 6.83629 12.9227 7.49114L11.9547 9.82582C11.8408 10.1105 11.5845 10.2814 11.2714 10.3098L8.73737 10.5091C8.02557 10.5376 7.74085 11.4202 8.28182 11.8758L10.2179 13.5272C10.4457 13.7265 10.5311 14.0396 10.4741 14.3244L9.87624 16.8014C9.70541 17.4847 10.4741 18.0257 11.0721 17.6556L13.2359 16.3459C13.5206 16.2035 13.8338 16.2035 14.0901 16.3459Z" fill="white"/>
</svg>
