<svg width="86" height="54" viewBox="0 0 86 54" fill="none" xmlns="http://www.w3.org/2000/svg">
<path d="M3.98588 36.0258L42.9985 3.13156L82.011 36.0258H85.7264L42.9985 0L0.270508 36.0258H3.98588Z" fill="#151A1E"/>
<path d="M13.4209 47.6972C13.4209 44.0332 16.1905 41.5298 19.7658 41.5298C22.3929 41.5298 23.9131 42.959 24.7515 44.4442L22.5704 45.516C22.0706 44.5516 20.9964 43.7833 19.7634 43.7833C17.601 43.7833 16.027 45.446 16.027 47.6972C16.027 49.9483 17.601 51.611 19.7634 51.611C20.9964 51.611 22.0683 50.8614 22.5704 49.8783L24.7515 50.9338C23.8945 52.4167 22.3929 53.8645 19.7658 53.8645C16.1905 53.8645 13.4209 51.3612 13.4209 47.6972Z" fill="#151A1E"/>
<path d="M36.6353 53.6494V45.3033L33.2749 53.6494H32.1657L28.8053 45.3033V53.6494H26.2668V41.728H29.8234L32.7191 48.9299L35.6148 41.728H39.1901V53.6494H36.6353Z" fill="#151A1E"/>
<path d="M58.8342 47.6972C58.8342 44.1056 61.4614 41.5298 65.053 41.5298C68.6633 41.5298 71.2904 44.1032 71.2904 47.6972C71.2904 51.2888 68.6633 53.8645 65.053 53.8645C61.4614 53.8645 58.8342 51.2911 58.8342 47.6972ZM68.682 47.6972C68.682 45.4623 67.2528 43.7833 65.053 43.7833C62.8532 43.7833 61.4427 45.4623 61.4427 47.6972C61.4427 49.9133 62.8555 51.611 65.053 51.611C67.2504 51.611 68.682 49.9133 68.682 47.6972Z" fill="#151A1E"/>
<path d="M83.4456 53.6494V45.3033L80.0852 53.6494H78.976L75.6156 45.3033V53.6494H73.0771V41.728H76.6337L79.5294 48.9299L82.4251 41.728H86.0004V53.6494H83.4456Z" fill="#151A1E"/>
<path d="M12.5099 53.6494V51.4146H11.438V41.728H2.96576L2.26985 47.823C1.89388 50.9686 1.21433 51.452 0 51.6131V53.6494H12.5099ZM4.78725 48.0005L5.25196 43.9605H8.88093V51.4146H3.3394C4.09134 50.7187 4.60977 49.6095 4.78725 48.0005Z" fill="#151A1E"/>
<path d="M57.9234 53.6494V51.4146H56.8515V41.728H48.3792L47.681 47.823C47.305 50.9686 46.6255 51.452 45.4111 51.6131V53.6494H57.9234ZM50.2007 48.0005L50.6654 43.9605H54.2944V51.4146H48.7529C49.5048 50.7187 50.0232 49.6095 50.2007 48.0005Z" fill="#151A1E"/>
<path d="M44.5378 21.085H42.1418V28.8006H44.5378V21.085Z" fill="#151A1E"/>
</svg>
