<svg width="26" height="26" viewBox="0 0 26 26" fill="none" xmlns="http://www.w3.org/2000/svg">
<circle cx="13" cy="13" r="13" fill="#24A548"/>
<path fill-rule="evenodd" clip-rule="evenodd" d="M7.86723 8.54664H4.77345V11.6404C4.77345 15.4849 7.89 18.6014 11.7345 18.6014H14.8282V15.5077C14.8282 11.6632 11.7117 8.54664 7.86723 8.54664ZM4 7.77319V11.6404C4 15.912 7.46283 19.3749 11.7345 19.3749H15.6017V15.5077C15.6017 11.236 12.1389 7.77319 7.86723 7.77319H4Z" fill="white"/>
<path d="M4.77344 8.54663L14.8282 18.6014" stroke="white" stroke-width="0.773446"/>
<path fill-rule="evenodd" clip-rule="evenodd" d="M20.268 7.83966L20.5334 10.777C20.8839 14.6561 17.9836 18.068 14.0987 18.3466L11.3475 18.6014L10.1873 18.9882L14.1541 19.1181C18.4706 18.8085 21.6932 15.0175 21.3038 10.7074L20.9688 6.99976L17.2094 7.33943C15.2639 7.51522 13.5535 8.39646 12.306 9.70682L12.8944 10.2106C14.0146 9.04773 15.5428 8.26661 17.279 8.10974L20.268 7.83966Z" fill="white"/>
<path d="M20.2422 7.77319L14.8281 13.574" stroke="white" stroke-width="0.773446"/>
</svg>
