<svg width="226" height="79" viewBox="0 0 226 79" fill="none" xmlns="http://www.w3.org/2000/svg">
<g clip-path="url(#clip0_840_368)">
<path fill-rule="evenodd" clip-rule="evenodd" d="M161.72 47.7076C158.828 47.7076 156.476 45.3612 156.476 42.4803V30.6367H158.574V42.4803C158.574 44.209 159.987 45.6173 161.72 45.6173C163.455 45.6173 164.869 44.209 164.869 42.4803V30.6367H166.967V42.4803C166.967 45.3612 164.613 47.7076 161.72 47.7076Z" fill="#98A2B1"/>
<path fill-rule="evenodd" clip-rule="evenodd" d="M178.267 45.2691H174.486V39.6965H178.267C179.809 39.6965 181.067 40.9461 181.067 42.4823C181.067 44.0186 179.809 45.2691 178.267 45.2691ZM179.665 35.1676C179.665 36.5114 178.566 37.6041 177.218 37.6041H174.486V32.729H177.218C178.566 32.729 179.665 33.8229 179.665 35.1676ZM180.568 38.2043C181.303 37.3973 181.764 36.3393 181.764 35.1676C181.764 32.6686 179.725 30.6367 177.218 30.6367L172.386 30.6387V47.3594H178.267C180.966 47.3594 183.165 45.1728 183.165 42.4823C183.165 40.6245 182.104 39.0257 180.568 38.2043Z" fill="#98A2B1"/>
<path fill-rule="evenodd" clip-rule="evenodd" d="M146.368 47.7073C143.476 47.7073 141.123 45.3609 141.123 42.4799V35.5155C141.123 32.6345 143.476 30.2881 146.368 30.2881C149.261 30.2881 151.615 32.6345 151.615 35.5155H149.518C149.518 33.7846 148.103 32.3784 146.368 32.3784C144.635 32.3784 143.222 33.7846 143.222 35.5155V42.4799C143.222 44.2087 144.635 45.617 146.368 45.617C148.103 45.617 149.518 44.2087 149.518 42.4799H151.615C151.615 45.3609 149.261 47.7073 146.368 47.7073Z" fill="#98A2B1"/>
<path fill-rule="evenodd" clip-rule="evenodd" d="M190.229 45.2691V40.392H196.698V38.3016H190.229V32.729H197.748V30.6367H188.131V47.3594H198.096V45.2691H190.229Z" fill="#98A2B1"/>
<path fill-rule="evenodd" clip-rule="evenodd" d="M115.597 47.7073C112.704 47.7073 110.35 45.3609 110.35 42.4799V35.5155C110.35 32.6345 112.704 30.2881 115.597 30.2881C118.488 30.2881 120.842 32.6345 120.842 35.5155H118.744C118.744 33.7846 117.331 32.3784 115.597 32.3784C113.862 32.3784 112.45 33.7846 112.45 35.5155V42.4799C112.45 44.2087 113.862 45.617 115.597 45.617C117.331 45.617 118.744 44.2087 118.744 42.4799H120.842C120.842 45.3609 118.488 47.7073 115.597 47.7073Z" fill="#98A2B1"/>
<path fill-rule="evenodd" clip-rule="evenodd" d="M133.927 30.6367V38.6478H127.986V30.6367H125.886V47.3573H127.986V40.7382H133.927V47.3573H136.026V30.6367H133.927Z" fill="#98A2B1"/>
<path fill-rule="evenodd" clip-rule="evenodd" d="M83.6932 41.7818L85.5283 34.7243L87.3654 41.7818H83.6932ZM88.817 47.3564H90.9841L86.6304 30.6357H84.4242L80.0735 47.3564H82.2396L83.1474 43.8721H87.9083L88.817 47.3564Z" fill="#98A2B1"/>
<path fill-rule="evenodd" clip-rule="evenodd" d="M97.3853 39.3463V32.7271H100.054C101.887 32.7271 103.379 34.2111 103.379 36.0382C103.379 37.8623 101.887 39.3463 100.054 39.3463H97.3853ZM105.684 47.3594L102.961 40.5784C104.47 39.6207 105.477 37.9483 105.477 36.0382C105.477 33.0609 103.046 30.6367 100.054 30.6367H95.2871V47.3594H97.3853V41.4366H100.054C100.381 41.4366 100.697 41.3946 101.007 41.3403L103.423 47.3594H105.684Z" fill="#98A2B1"/>
<path fill-rule="evenodd" clip-rule="evenodd" d="M48.0632 16.5166L46.9592 17.4046L46.7824 28.4063L48.5691 28.2823L48.8641 16.9263L48.0632 16.5166ZM68.2047 47.2695L68.3651 46.1778L64.6148 44.0249L63.7667 45.6339L67.628 47.8779L68.2047 47.2695ZM51.5627 62.33L51.8485 56.9377L49.814 44.7193L48.1815 43.731L51.0025 61.5107L51.5627 62.33ZM38.9918 43.9768L42.8604 40.511L41.3265 39.581L37.9997 42.5266L38.9918 43.9768ZM43.0218 38.0806L44.5535 38.9922L47.0733 36.7359L47.7322 40.8827L49.3319 41.8373L48.4889 36.7656L56.4521 41.3887L57.7854 40.1064L49.6156 35.4157L68.5717 29.7244L69.429 28.8989L63.8396 29.2932L48.419 34.1119L48.5146 30.3686L46.7505 30.4946L46.6898 34.2533L34.8817 31.3292L32.0217 31.529L34.4581 32.9792L45.8427 35.5796L43.0218 38.0806ZM36.506 43.8508L31.1365 48.6081L31.2434 50.0082L31.8294 50.3963L37.5073 45.3072L36.506 43.8508ZM58.3715 42.501L59.6966 41.2033L62.9956 43.095L62.1567 44.6999L58.3715 42.501Z" fill="#98A2B1"/>
<mask id="mask0_840_368" style="mask-type:luminance" maskUnits="userSpaceOnUse" x="27" y="14" width="47" height="53">
<path fill-rule="evenodd" clip-rule="evenodd" d="M27.619 14.2617H73.2545V66.5182H27.619V14.2617Z" fill="white"/>
</mask>
<g mask="url(#mask0_840_368)">
<path fill-rule="evenodd" clip-rule="evenodd" d="M48.7545 61.677L31.2439 50.0065L30.0431 34.4401L48.7545 61.677ZM52.4113 46.2908L51.5632 62.3295L32.1959 34.0478L52.4113 46.2908ZM53.718 60.8187L54.6576 46.13L68.4765 32.6242L53.718 60.8187ZM70.2848 33.2285L68.2051 47.2689L56.3364 59.7772L70.2848 33.2285ZM53.4445 44.2844L32.0232 31.5273L69.4295 28.8973L53.4445 44.2844ZM68.3213 26.9012L31.9728 29.4411L48.0637 16.515L68.3213 26.9012ZM27.619 30.2779L29.4572 50.9867L52.5336 66.5183L69.9261 47.9449L73.2549 27.0855L47.8653 14.2607L27.619 30.2779Z" fill="#98A2B1"/>
</g>
</g>
<defs>
<clipPath id="clip0_840_368">
<rect width="170.476" height="52.2565" fill="white" transform="translate(27.6191 14.2617)"/>
</clipPath>
</defs>
</svg>
