<svg width="226" height="79" viewBox="0 0 226 79" fill="none" xmlns="http://www.w3.org/2000/svg">
<path fill-rule="evenodd" clip-rule="evenodd" d="M83.0438 51.5212C84.2841 49.6131 86.383 44.5566 82.4714 43.3163C78.5598 42.0761 76.3654 48.182 76.3654 48.182C76.0792 49.0407 76.1746 51.1396 76.9379 51.9982C77.7011 52.8569 81.7082 53.4293 83.0438 51.5212ZM104.128 43.8888C104.128 33.0126 95.7328 27.002 95.7328 27.002C95.7328 27.002 86.0968 20.9915 75.316 25.1893C61.2914 31.4861 59.2879 43.6026 59.2879 43.6026C65.1076 35.3977 69.0192 32.4401 75.1252 29.0055C81.2311 25.5709 90.1992 27.1928 92.0119 28.3377C93.8247 29.4826 101.266 32.3447 101.266 44.3658C101.266 56.3869 87.6233 66.0229 87.6233 66.0229C89.1498 66.1183 89.8176 65.7366 89.8176 65.7366C95.4465 62.6837 104.128 54.765 104.128 43.8888ZM74.9344 41.4082C71.786 45.0336 71.4044 47.6096 71.4044 49.1361C71.4044 50.6626 72.6446 59.1537 80.8495 57.5318C89.0544 55.9099 90.5809 47.1326 90.5809 47.1326C90.5809 47.1326 90.8671 39.2139 84.4749 38.2599C78.0827 37.3058 74.9344 41.4082 74.9344 41.4082ZM83.5209 40.7404C88.5774 41.122 88.0049 47.3234 87.6233 48.6591C87.2417 49.8993 83.9979 54.9558 79.4184 55.0512C74.839 55.1466 72.0722 48.4682 75.8884 44.175C75.8884 44.175 78.4644 40.3588 83.5209 40.7404ZM60.3373 49.8039H58.9062V66.3091H67.3019C58.3338 61.1572 60.3373 49.8039 60.3373 49.8039ZM76.7471 36.1609C76.7471 36.1609 68.6376 38.069 66.8249 49.2315C65.7754 57.6272 71.5952 62.0158 78.2736 61.825C84.5703 61.6342 91.5349 57.7226 94.1109 50.8534C95.9236 47.3234 95.542 44.175 94.7787 41.7899C91.8211 32.7263 83.7117 33.4896 79.7046 35.4931C79.7046 35.4931 83.7117 35.3023 87.5279 36.9242C91.3441 38.5461 93.1568 43.6026 92.7752 46.9418C92.3936 50.2809 89.1498 57.6272 80.3725 59.2491C71.5952 60.871 69.6871 51.8074 69.6871 51.8074C69.6871 51.8074 68.1606 43.9842 75.9838 37.6874C75.8884 37.6874 77.7965 35.7793 76.7471 36.1609ZM162.517 16.0304C163.566 16.0304 164.425 15.7442 164.997 15.0763C165.57 14.4085 165.856 13.5498 165.856 12.405H164.043C164.043 13.0728 163.948 13.4544 163.661 13.8361C163.375 14.1223 162.994 14.3131 162.421 14.3131C161.849 14.3131 161.467 14.1223 161.276 13.8361C161.086 13.4544 160.99 12.9774 160.99 12.3096H159.177C159.177 13.4544 159.464 14.3131 160.036 14.9809C160.608 15.6488 161.467 16.0304 162.517 16.0304ZM104.796 14.5993H59.0971V36.0655C59.8603 34.9207 62.9133 32.1539 62.9133 32.1539V18.3201H100.885V24.3307C89.0544 16.1258 76.4609 23.3766 76.4609 23.3766C94.3971 19.7512 106.323 27.7653 106.323 42.3623C106.323 49.0407 104.033 54.4788 101.457 58.4858L94.3017 66.3091H105.369V54.9558C107.754 51.712 109.567 48.182 109.567 45.0336C109.567 36.2563 107.086 31.009 104.796 28.0515V14.5993ZM97.3547 52.9523C105.273 38.7369 92.3936 30.3412 92.3936 30.3412C92.3936 30.3412 87.7187 27.5744 79.8955 30.055C77.0333 31.009 74.0757 33.2034 74.0757 33.2034C74.0757 33.2034 77.9873 31.1999 86.1922 31.4861C94.3971 31.6769 97.2593 41.122 97.0684 45.7969C96.8776 50.4718 95.7328 54.4788 86.5738 61.348C77.2241 67.4539 67.779 61.1572 66.5387 58.772C65.2984 56.3869 64.3444 52.1891 64.4398 49.8039C64.5352 47.4188 67.0157 38.6415 72.4538 35.3977C73.5033 34.4436 73.7895 33.6804 72.3584 33.7758C72.3584 33.7758 62.7225 38.2599 62.0546 51.0442C61.3868 63.8285 74.5527 66.3091 77.1287 66.3091C79.7046 66.1183 90.2946 65.7366 97.3547 52.9523ZM150.018 17.3661C148.11 17.3661 146.679 17.9385 145.821 18.988C144.962 20.1328 144.58 21.7547 144.58 23.8536V31.4861C144.58 33.6804 144.962 35.3023 145.821 36.4472C146.679 37.592 148.015 38.1645 150.018 38.1645C151.927 38.1645 153.358 37.592 154.121 36.4472C154.98 35.3023 155.361 33.6804 155.361 31.4861V23.8536C155.361 21.6593 154.98 20.0374 154.121 18.988C153.358 17.9385 151.927 17.3661 150.018 17.3661ZM151.927 32.4401C151.927 33.3942 151.831 34.1574 151.545 34.7299C151.259 35.2069 150.782 35.4931 150.018 35.4931C149.255 35.4931 148.683 35.2069 148.492 34.7299C148.206 34.2528 148.11 33.4896 148.11 32.4401V23.0904C148.11 22.1363 148.206 21.3731 148.492 20.8961C148.778 20.419 149.255 20.1328 150.018 20.1328C150.782 20.1328 151.259 20.419 151.545 20.8961C151.831 21.3731 151.927 22.1363 151.927 23.0904V32.4401ZM140.001 27.8607L143.626 17.5569H140.669L138.57 23.8536L136.185 17.5569H132.941L136.566 27.0974L132.75 37.8782H135.708L137.997 31.009L140.669 37.8782H143.817L140.001 27.8607ZM165.093 17.5569L159.941 30.4366V17.5569H157.174V37.9736H159.464L164.616 24.9031V37.9736H167.478V17.5569H165.093ZM120.538 55.0512C120.347 57.6272 120.157 59.3445 119.966 60.3939C119.775 61.4434 119.489 62.1112 119.203 62.3974C118.821 62.6837 118.248 62.8745 117.485 62.7791V65.4504C117.676 65.4504 117.962 65.4504 118.344 65.4504C119.87 65.4504 120.92 65.1642 121.683 64.4964C122.446 63.8285 122.923 62.8745 123.114 61.5388C123.4 60.2031 123.591 58.1996 123.782 55.5282L124.164 47.8958H126.835V65.4504H130.27V45.1291H121.111L120.538 55.0512ZM119.107 36.638C119.87 35.5885 120.252 34.062 120.252 32.0585V30.4366H117.008V32.2493C117.008 33.0126 117.008 33.585 116.913 34.062C116.817 34.539 116.722 34.8253 116.436 35.1115C116.15 35.3977 115.768 35.4931 115.291 35.4931C114.528 35.4931 114.051 35.2069 113.764 34.7299C113.478 34.2528 113.287 33.3942 113.287 32.2493V23.3766C113.287 22.6134 113.287 22.0409 113.383 21.5639C113.478 21.0869 113.669 20.7053 113.955 20.419C114.241 20.1328 114.623 20.0374 115.195 20.0374C115.768 20.0374 116.15 20.1328 116.436 20.419C116.722 20.7053 116.817 20.9915 116.913 21.4685C117.008 21.8501 117.008 22.4226 117.008 23.1858V24.9031H120.252V23.1858C120.252 21.2777 119.87 19.8466 119.107 18.7971C118.344 17.7477 117.008 17.2707 115.195 17.2707C113.192 17.2707 111.856 17.8431 111.093 18.988C110.33 20.1328 109.853 21.8501 109.853 24.0444V31.2953C109.853 33.4896 110.234 35.1115 111.093 36.3517C111.856 37.4966 113.287 38.1645 115.195 38.1645C117.104 38.2599 118.344 37.6874 119.107 36.638ZM127.217 26.1434L126.453 29.4826L125.595 26.1434L123.973 17.6523H120.824L124.831 32.3447C124.927 32.8217 124.927 33.2034 124.927 33.4896C124.927 34.2528 124.736 34.7299 124.354 35.0161C123.973 35.3023 123.305 35.4931 122.446 35.4931C122.065 35.4931 121.778 35.4931 121.588 35.4931V38.069C121.778 38.069 122.16 38.069 122.542 38.069C123.973 38.069 124.927 37.8782 125.69 37.592C126.358 37.3058 126.93 36.7334 127.217 36.0655C127.503 35.3977 127.884 34.2528 128.171 32.7263L131.796 17.6523H128.552L127.217 26.1434ZM136.089 56.1961H139.619V53.6201H136.089V47.8004H140.573V45.2245H132.655V65.6412H140.573V63.0653H136.089V56.1961ZM147.156 44.8428C145.153 44.8428 143.817 45.4153 143.054 46.5601C142.291 47.705 141.814 49.4223 141.814 51.6166V58.8674C141.814 61.0618 142.195 62.6837 143.054 63.9239C143.817 65.0688 145.248 65.7366 147.156 65.7366C149.064 65.7366 150.305 65.1642 151.068 64.1147C151.831 63.0653 152.213 61.5388 152.213 59.5353V57.9134H148.969V59.7261C148.969 60.4893 148.969 61.0618 148.874 61.5388C148.778 62.0158 148.683 62.302 148.397 62.5883C148.11 62.8745 147.729 62.9699 147.252 62.9699C146.488 62.9699 146.011 62.6837 145.725 62.2066C145.439 61.7296 145.344 60.871 145.344 59.7261V50.8534C145.344 50.0901 145.344 49.5177 145.439 49.0407C145.534 48.5636 145.725 48.182 146.011 47.8958C146.298 47.6096 146.679 47.5142 147.252 47.5142C147.824 47.5142 148.206 47.6096 148.492 47.8958C148.778 48.182 148.874 48.4682 148.969 48.9453C149.064 49.3269 149.064 49.8993 149.064 50.6626V52.3799H152.308V50.6626C152.308 48.7545 151.927 47.3234 151.163 46.2739C150.305 45.4153 148.969 44.8428 147.156 44.8428Z" fill="#98A2B1"/>
</svg>
