<svg width="34" height="34" viewBox="0 0 34 34" fill="none" xmlns="http://www.w3.org/2000/svg">
<rect width="34" height="34" rx="4.25" fill="#24A548"/>
<path d="M5.46 28.0001H9.6C9.85438 28.0001 10.06 27.794 10.06 27.5401V23.4001C10.06 23.1461 9.85438 22.9401 9.6 22.9401H5.46C5.20562 22.9401 5 23.1461 5 23.4001V27.5401C5 27.794 5.20562 28.0001 5.46 28.0001Z" fill="#F9F9FB"/>
<path d="M11.44 28.0001H15.58C15.8344 28.0001 16.04 27.794 16.04 27.5401V23.4001C16.04 23.1461 15.8344 22.9401 15.58 22.9401H11.44C11.1856 22.9401 10.98 23.1461 10.98 23.4001V27.5401C10.98 27.794 11.1856 28.0001 11.44 28.0001Z" fill="#F9F9FB"/>
<path d="M27.5399 22.9401H23.3999C23.1456 22.9401 22.9399 23.1461 22.9399 23.4001V27.5401C22.9399 27.794 23.1456 28.0001 23.3999 28.0001H27.5399C27.7943 28.0001 27.9999 27.794 27.9999 27.5401V23.4001C27.9999 23.1461 27.7943 22.9401 27.5399 22.9401Z" fill="#F9F9FB"/>
<path d="M17.42 28.0001H21.56C21.8143 28.0001 22.02 27.794 22.02 27.5401V23.4001C22.02 23.1461 21.8143 22.9401 21.56 22.9401H17.42C17.1656 22.9401 16.96 23.1461 16.96 23.4001V27.5401C16.96 27.794 17.1656 28.0001 17.42 28.0001Z" fill="#F9F9FB"/>
<path d="M11.44 22.0201H15.58C15.8344 22.0201 16.04 21.814 16.04 21.5601V17.4201C16.04 17.1662 15.8344 16.9601 15.58 16.9601H11.44C11.1856 16.9601 10.98 17.1662 10.98 17.4201V21.5601C10.98 21.814 11.1856 22.0201 11.44 22.0201Z" fill="#F9F9FB"/>
<path d="M27.5399 16.9601H23.3999C23.1456 16.9601 22.9399 17.1662 22.9399 17.4201V21.5601C22.9399 21.814 23.1456 22.0201 23.3999 22.0201H27.5399C27.7943 22.0201 27.9999 21.814 27.9999 21.5601V17.4201C27.9999 17.1662 27.7943 16.9601 27.5399 16.9601Z" fill="#F9F9FB"/>
<path d="M17.42 22.0201H21.56C21.8143 22.0201 22.02 21.814 22.02 21.5601V17.4201C22.02 17.1662 21.8143 16.9601 21.56 16.9601H17.42C17.1656 16.9601 16.96 17.1662 16.96 17.4201V21.5601C16.96 21.814 17.1656 22.0201 17.42 22.0201Z" fill="#F9F9FB"/>
<path d="M27.5399 10.98H23.3999C23.1456 10.98 22.9399 11.1861 22.9399 11.44V15.58C22.9399 15.8339 23.1456 16.04 23.3999 16.04H27.5399C27.7943 16.04 27.9999 15.8339 27.9999 15.58V11.44C27.9999 11.1861 27.7943 10.98 27.5399 10.98Z" fill="#F9F9FB"/>
<path d="M27.5399 5H23.3999C23.1456 5 22.9399 5.20608 22.9399 5.46V9.6C22.9399 9.85392 23.1456 10.06 23.3999 10.06H27.5399C27.7943 10.06 27.9999 9.85392 27.9999 9.6V5.46C27.9999 5.20608 27.7943 5 27.5399 5Z" fill="#F9F9FB"/>
<path d="M17.42 16.04H21.56C21.8143 16.04 22.02 15.8339 22.02 15.58V11.44C22.02 11.1861 21.8143 10.98 21.56 10.98H17.42C17.1656 10.98 16.96 11.1861 16.96 11.44V15.58C16.96 15.8339 17.1656 16.04 17.42 16.04Z" fill="#F9F9FB"/>
</svg>
