<svg width="34" height="34" viewBox="0 0 34 34" fill="none" xmlns="http://www.w3.org/2000/svg">
<rect width="34" height="34" rx="4.25" fill="#24A548"/>
<path d="M27.9019 10.6586L24.7079 22.5732C24.5789 23.0663 24.3209 23.5161 23.9605 23.8765C23.6001 24.2369 23.1503 24.4949 22.6572 24.6239C22.4066 24.692 22.148 24.7264 21.8882 24.7264C21.5069 24.7273 21.1291 24.6523 20.7771 24.5058C20.425 24.3592 20.1056 24.1441 19.8375 23.8728L15.9386 19.9662L20.6245 15.2804C20.7336 15.1583 20.7919 14.9991 20.7873 14.8354C20.7827 14.6717 20.7156 14.516 20.5998 14.4002C20.484 14.2844 20.3283 14.2173 20.1646 14.2127C20.0009 14.2081 19.8417 14.2664 19.7196 14.3755L15.0338 19.0614L11.1246 15.1522C10.7612 14.792 10.4994 14.3421 10.3658 13.8482C10.2321 13.3543 10.2314 12.8338 10.3635 12.3395C10.4957 11.8451 10.7561 11.3945 11.1184 11.0332C11.4808 10.6718 11.9321 10.4126 12.4268 10.2818L24.3414 7.09812C24.8342 6.96678 25.3529 6.9673 25.8455 7.09965C26.3381 7.23199 26.7872 7.49149 27.1479 7.85215C27.5085 8.21281 27.768 8.66194 27.9004 9.15451C28.0327 9.64709 28.0332 10.1658 27.9019 10.6586ZM15.9386 19.9662L15.0338 19.0614L13.9136 20.1687C13.3109 19.7771 12.5922 19.6037 11.8772 19.6773C11.1622 19.751 10.4941 20.0674 9.98392 20.5738L7.92041 22.6373C7.33132 23.226 7.00024 24.0247 7 24.8575C6.99976 25.6904 7.33038 26.4892 7.91913 27.0783C8.50788 27.6674 9.30653 27.9985 10.1394 27.9987C10.9722 27.999 11.7711 27.6683 12.3602 27.0796L14.4237 25.0289C14.9344 24.5187 15.2538 23.8482 15.3281 23.1301C15.4023 22.412 15.2268 21.6903 14.8313 21.0864L15.9386 19.9662Z" fill="#F9F9FB"/>
</svg>
