<svg width="34" height="34" viewBox="0 0 34 34" fill="none" xmlns="http://www.w3.org/2000/svg">
<rect width="34" height="34" rx="4.25" fill="#24A548"/>
<path d="M30 15.4393C30 14.6742 29.3527 14.0538 28.5555 14.0538C27.7573 14.0538 27.1112 14.6742 27.1112 15.4393V18.6722H6.88879V15.4393C6.88879 14.6742 6.24238 14.0538 5.44454 14.0538C4.64701 14.0538 4 14.6742 4 15.4393V20.1737C4 20.2159 4.00905 20.2547 4.01267 20.2955C4.01026 20.3325 4 20.3675 4 20.4043C4 21.3612 4.90944 22.1363 6.03123 22.1363H6.66648V24.1138H7.66641L8.15084 22.1363H25.7104L26.1954 24.1138H27.1951V22.1363H27.9682C29.0894 22.1363 29.9994 21.3609 29.9994 20.4043C29.9994 20.3675 29.9897 20.3325 29.9864 20.2963C29.99 20.2547 29.9994 20.2159 29.9994 20.1737V15.4393H30Z" fill="white"/>
<path d="M13.2474 17.2723C13.2474 17.9343 12.6882 18.4714 11.9987 18.4714H8.45923C7.76939 18.4714 7.21045 17.9343 7.21045 17.2723V13.1985C7.21045 12.5365 7.76939 12 8.45923 12H11.9987C12.6879 12 13.2474 12.5365 13.2474 13.1985V17.2723Z" fill="white"/>
<path d="M20.0187 17.2723C20.0187 17.9343 19.4592 18.4714 18.7696 18.4714H15.2302C14.5404 18.4714 13.9814 17.9343 13.9814 17.2723V13.1985C13.9814 12.5365 14.5407 12 15.2302 12H18.7696C19.4589 12 20.0187 12.5365 20.0187 13.1985V17.2723Z" fill="white"/>
<path d="M26.7378 17.2723C26.7378 17.9343 26.1782 18.4714 25.4887 18.4714H21.9496C21.2594 18.4714 20.7002 17.9343 20.7002 17.2723V13.1985C20.7002 12.5365 21.2594 12 21.9496 12H25.4887C26.1779 12 26.7378 12.5365 26.7378 13.1985V17.2723Z" fill="white"/>
</svg>
