<svg width="34" height="34" viewBox="0 0 34 34" fill="none" xmlns="http://www.w3.org/2000/svg">
<rect width="34" height="34" rx="4.25" fill="#24A548"/>
<path d="M22.5211 13.476C24.0333 13.476 25.2592 12.2501 25.2592 10.738C25.2592 9.2259 24.0333 8 22.5211 8C21.009 8 19.7831 9.2259 19.7831 10.738C19.7831 12.2501 21.0088 13.476 22.5211 13.476ZM21.9763 19.4992C16.4121 19.4992 15.5176 13.4755 9.38099 13.4755C7.11958 13.4755 5 14.5706 5 14.5706V24.9753C5 26.4877 6.2259 27.7136 7.73802 27.7136H25.2617C26.7741 27.7136 28 26.4877 28 24.9755V17.8565C28 17.8565 26.1797 19.4992 21.9763 19.4992Z" fill="white"/>
</svg>
