<svg width="34" height="34" viewBox="0 0 34 34" fill="none" xmlns="http://www.w3.org/2000/svg">
<rect width="34" height="34" rx="5" fill="#24A548"/>
<path d="M25.1759 16.9096H17.9404V14.633C17.9404 13.5736 18.8195 12.6946 19.8789 12.6946C20.9383 12.6946 21.8174 13.5736 21.8174 14.633C21.8174 15.1289 22.2231 15.5347 22.719 15.5347C23.2149 15.5347 23.6206 15.1289 23.6206 14.633C23.6206 12.5819 21.9526 10.9138 19.9014 10.9138C19.1801 10.9138 18.5265 11.1167 17.9629 11.4774V8.84012C17.9629 8.25406 18.4363 7.78071 19.0224 7.78071C19.6084 7.78071 20.0818 8.25406 20.0818 8.84012C20.0818 9.33601 20.4875 9.74174 20.9834 9.74174C21.4793 9.74174 21.885 9.33601 21.885 8.84012C21.885 7.26227 20.6002 6 19.0449 6C18.2785 6 17.6023 6.29303 17.0839 6.78892C16.5654 6.31557 15.8892 6 15.1228 6C13.545 6 12.2827 7.28481 12.2827 8.84012C12.2827 9.33601 12.6884 9.74174 13.1843 9.74174C13.6802 9.74174 14.086 9.33601 14.086 8.84012C14.086 8.25406 14.5593 7.78071 15.1454 7.78071C15.7314 7.78071 16.2048 8.25406 16.2048 8.84012V11.4774C15.6413 11.1393 14.9876 10.9138 14.2663 10.9138C12.2151 10.9138 10.5471 12.5819 10.5471 14.633C10.5471 15.1289 10.9528 15.5347 11.4487 15.5347C11.9446 15.5347 12.3503 15.1289 12.3503 14.633C12.3503 13.5736 13.2294 12.6946 14.2888 12.6946C15.3482 12.6946 16.2273 13.5736 16.2273 14.633V16.9096H8.90162C8.40573 16.9096 8 17.3154 8 17.8113C8 18.3072 8.40573 18.7129 8.90162 18.7129H9.53276C10.3893 21.0571 12.3503 22.9054 14.7847 23.6042V25.5878H13.7704C13.2745 25.5878 12.8688 25.9935 12.8688 26.4894C12.8688 26.9853 13.2745 27.391 13.7704 27.391H20.3072C20.8031 27.391 21.2088 26.9853 21.2088 26.4894C21.2088 25.9935 20.8031 25.5878 20.3072 25.5878H19.2928V23.6042C21.7272 22.8829 23.6883 21.0571 24.5673 18.6904H25.1985C25.6944 18.6904 26.1001 18.2846 26.1001 17.7887C26.0776 17.3154 25.6718 16.9096 25.1759 16.9096Z" fill="white"/>
</svg>
