<svg width="34" height="34" viewBox="0 0 34 34" fill="none" xmlns="http://www.w3.org/2000/svg">
<rect width="34" height="34" rx="4.25" fill="#24A548"/>
<path d="M17.9706 8V25.1529L13.5588 23.2953V9.85758L17.9706 8ZM19.4412 8.07733L23.8529 10.7923V22.3606L19.4412 25.0756V8.07733ZM8.41176 12.0248L12.0882 10.4768V22.6761L8.41176 21.1281V12.0248ZM6.94118 12.644V20.5089L4.44995 19.46C4.1773 19.3452 4 19.0782 4 18.7823V14.3706C4 14.0747 4.1773 13.8077 4.44995 13.6929L6.94118 12.644ZM25.3235 11.6972L28.6501 13.7444C28.8675 13.8782 29 14.1152 29 14.3706V18.7823C29 19.0377 28.8675 19.2747 28.6501 19.4085L25.3235 21.4556V11.6972Z" fill="#F9F9FB"/>
</svg>
