<svg width="34" height="34" viewBox="0 0 34 34" fill="none" xmlns="http://www.w3.org/2000/svg">
<rect width="34" height="34" rx="5" fill="#24A548"/>
<path d="M15.0686 7C14.8049 7.00003 14.5911 7.214 14.5914 7.47775V10.8176C14.5914 11.0812 14.8051 11.2949 15.0686 11.2949H22.2277C22.4915 11.2951 22.7054 11.0814 22.7055 10.8176V7.47775C22.7057 7.21382 22.4917 6.99977 22.2277 7H15.0686ZM10.7723 12.0117C10.5087 12.0117 10.295 12.2254 10.295 12.489V15.8289C10.2948 16.0926 10.5085 16.3066 10.7723 16.3066H17.9314C18.1951 16.3066 18.4089 16.0926 18.4086 15.8289V12.489C18.4086 12.2254 18.1949 12.0117 17.9314 12.0117H10.7723ZM19.3636 12.0117C19.0999 12.0115 18.8859 12.2252 18.8859 12.489V15.8289C18.8857 16.0928 19.0997 16.3068 19.3636 16.3066H26.5227C26.7865 16.3066 27.0002 16.0926 27 15.8289V12.489C27 12.2254 26.7863 12.0117 26.5227 12.0117H19.3636ZM6.47774 17.0234C6.2147 17.0232 6.00105 17.2358 6 17.4988V20.8406C6.00003 21.1044 6.21398 21.3181 6.47774 21.3179H13.6368C13.9004 21.3178 14.1141 21.1042 14.1141 20.8406V17.4988C14.113 17.236 13.8997 17.0235 13.6368 17.0234H6.47774ZM15.0686 17.0234C14.8058 17.0235 14.5924 17.236 14.5914 17.4988V20.8406C14.5914 21.1042 14.8051 21.3178 15.0686 21.3179H22.2277C22.4915 21.3181 22.7054 21.1044 22.7055 20.8406V17.4988C22.7044 17.2358 22.4908 17.0232 22.2277 17.0234H15.0686ZM10.7723 22.0333C10.5087 22.0333 10.295 22.247 10.295 22.5105V25.8523C10.295 26.1159 10.5087 26.3295 10.7723 26.3296H17.9314C18.1949 26.3295 18.4086 26.1159 18.4086 25.8523V22.5105C18.4086 22.247 18.1949 22.0333 17.9314 22.0333H10.7723ZM19.3636 22.0333C19.0999 22.033 18.8859 22.2468 18.8859 22.5105V25.8523C18.8859 26.116 19.0999 26.3298 19.3636 26.3296H26.5227C26.7863 26.3295 27 26.1159 27 25.8523V22.5105C27 22.247 26.7863 22.0333 26.5227 22.0333H19.3636Z" fill="#F9F9FB"/>
</svg>
