<svg width="29" height="29" viewBox="0 0 29 29" fill="none" xmlns="http://www.w3.org/2000/svg">
<path d="M5.70696 23.3847C5.31643 22.9942 5.31643 22.3611 5.70696 21.9705L21.9704 5.70708C22.3609 5.31655 22.9941 5.31655 23.3846 5.70708C23.7751 6.0976 23.7751 6.73077 23.3846 7.12129L7.12117 23.3847C6.73065 23.7753 6.09748 23.7753 5.70696 23.3847Z" fill="white"/>
<path d="M5.70696 5.70711C5.31643 6.09763 5.31643 6.73079 5.70696 7.12132L21.9704 23.3848C22.3609 23.7753 22.9941 23.7753 23.3846 23.3848C23.7751 22.9943 23.7751 22.3611 23.3846 21.9706L7.12117 5.70711C6.73065 5.31658 6.09748 5.31658 5.70696 5.70711Z" fill="white"/>
</svg>
