<svg width="12" height="16" viewBox="0 0 12 16" fill="none" xmlns="http://www.w3.org/2000/svg">
<path d="M12 9.36632C12 7.45997 11.0919 5.56498 9.5709 4.29717L9.373 4.13786C9.13991 3.95037 8.78706 4.02189 8.65841 4.29187C8.59597 4.42317 8.5517 5.75266 8.5517 5.97667C8.5517 6.02189 8.54224 6.09605 8.54318 6.104C8.54318 6.29301 8.37423 6.44304 8.17936 6.41087C8.02611 6.38571 7.92148 6.24041 7.92073 6.08508C7.91089 3.8115 7.21616 2.22584 5.94097 1.04185C5.1611 0.31779 4.23914 -0.321885 3.95686 0.177405C3.88497 0.304735 4.00397 0.590801 4.12392 0.957464C4.3905 1.7729 3.57677 3.07533 2.42664 4.37682C1.34557 5.60017 0 7.12282 0 9.36632C0 12.3855 2.8599 15.1357 5.99981 15.1357C9.1401 15.1357 12 12.3855 12 9.36632Z" fill="white"/>
</svg>
