<svg width="16" height="16" viewBox="0 0 16 16" fill="none" xmlns="http://www.w3.org/2000/svg">
<path d="M14.6667 2.81254C14.6667 2.75361 14.6433 2.69708 14.6016 2.65541C14.5148 2.56863 14.3741 2.56863 14.2874 2.65541L10.0542 6.88861C9.79382 7.14895 9.37173 7.14895 9.11139 6.88861C8.85105 6.62827 8.85105 6.20618 9.11139 5.94584L13.3446 1.71264C13.3863 1.67096 13.4097 1.61444 13.4097 1.5555C13.4097 1.43277 13.3102 1.33328 13.1875 1.33328L10.8891 1.33328C10.5209 1.33328 10.2225 1.03481 10.2225 0.66664C10.2225 0.298464 10.5209 0 10.8891 0L15.3333 0C15.7015 0 16 0.298477 16 0.666667L16 5.11091C16 5.47908 15.7015 5.77755 15.3334 5.77755C14.9652 5.77755 14.6667 5.47908 14.6667 5.11091V2.81254ZM1.33328 13.1875C1.33328 13.2464 1.3567 13.3029 1.39837 13.3446C1.48515 13.4314 1.62586 13.4314 1.71264 13.3446L5.94584 9.11139C6.20618 8.85105 6.62827 8.85105 6.88861 9.11139C7.14895 9.37173 7.14895 9.79382 6.88861 10.0542L2.65541 14.2874C2.61373 14.329 2.59032 14.3856 2.59032 14.4445C2.59032 14.5672 2.68981 14.6667 2.81254 14.6667H5.11091C5.47908 14.6667 5.77755 14.9652 5.77755 15.3334C5.77755 15.7015 5.47908 16 5.11091 16L0.666667 16C0.298477 16 0 15.7015 0 15.3333V10.8891C0 10.5209 0.298464 10.2225 0.666639 10.2225C1.03481 10.2225 1.33328 10.5209 1.33328 10.8891V13.1875Z" fill="white"/>
</svg>
