<svg width="28" height="28" viewBox="0 0 28 28" fill="none" xmlns="http://www.w3.org/2000/svg">
<path d="M25.2839 20.9271C23.193 19.5491 21.2511 18.7121 19.3534 18.3704C18.8927 18.2879 18.4073 18.4388 18.0542 18.7804L16.7881 20.0075C16.3385 20.4402 15.6571 20.5285 15.1331 20.2182C13.5856 19.3071 12.1457 18.1711 10.8576 16.8387C9.87559 15.8252 8.99292 14.712 8.23711 13.5248C7.87026 12.9525 7.93094 12.2095 8.38055 11.7112L9.74595 10.2023C10.077 9.84074 10.2231 9.33966 10.1432 8.86419C9.81491 6.90543 9.00119 4.90398 7.66338 2.74024C7.37376 2.27047 6.88552 2 6.38349 2C6.24281 2 6.10213 2.01993 5.96422 2.06548C5.11739 2.3388 4.24851 2.88827 3.37962 3.69969C2.43626 4.57656 1.92597 5.89759 2.00871 7.23C2.28455 11.5404 4.43332 15.9761 8.06335 19.7228C12.3223 24.1186 17.4694 26.3848 22.1862 25.9464C23.5489 25.8211 24.757 25.0496 25.4163 23.8823C25.6369 23.4894 25.8107 23.0937 25.9321 22.7036C26.1362 22.0431 25.8687 21.3143 25.2839 20.9271Z" fill="white"/>
</svg>
