<svg width="34" height="34" viewBox="0 0 34 34" fill="none" xmlns="http://www.w3.org/2000/svg">
<rect width="34" height="34" rx="4.25" fill="#24A548"/>
<path d="M25.3998 15.4363C25.0698 15.4363 24.7998 15.7063 24.7998 16.0363C24.7998 16.3663 25.0698 16.6363 25.3998 16.6363H28.3998C28.7298 16.6363 28.9998 16.3663 28.9998 16.0363C28.9998 15.7063 28.7298 15.4363 28.3998 15.4363H25.3998Z" fill="white"/>
<path d="M5.6 16.6363H8.6C8.93 16.6363 9.2 16.3663 9.2 16.0363C9.2 15.7063 8.93 15.4363 8.6 15.4363H5.6C5.27 15.4363 5 15.7063 5 16.0363C5 16.3663 5.27 16.6363 5.6 16.6363Z" fill="white"/>
<path d="M17.5999 7.90624V5.11624C17.5999 4.78624 17.3299 4.51624 16.9999 4.51624C16.6699 4.51624 16.3999 4.78624 16.3999 5.11624V7.90624C16.3999 8.23624 16.6699 8.50624 16.9999 8.50624C17.3299 8.50624 17.5999 8.23624 17.5999 7.90624Z" fill="white"/>
<path d="M25.3398 7.96638C25.0998 7.72638 24.7398 7.72638 24.4998 7.96638L22.5198 9.94638C22.2798 10.1864 22.2798 10.5464 22.5198 10.7864C22.6398 10.9064 22.7898 10.9664 22.9398 10.9664C23.0898 10.9664 23.2398 10.9064 23.3598 10.7864L25.3398 8.80638C25.5498 8.56638 25.5498 8.17638 25.3398 7.96638Z" fill="white"/>
<path d="M8.65994 24.6163C8.77994 24.7363 8.92994 24.7963 9.07994 24.7963C9.22994 24.7963 9.37994 24.7363 9.49994 24.6163L11.4799 22.6363C11.7199 22.3963 11.7199 22.0363 11.4799 21.7963C11.2399 21.5563 10.8799 21.5563 10.6399 21.7963L8.65994 23.7763C8.44994 23.9863 8.44994 24.3763 8.65994 24.6163Z" fill="white"/>
<path d="M10.64 10.7864C10.76 10.9064 10.91 10.9664 11.06 10.9664C11.21 10.9664 11.36 10.9064 11.48 10.7864C11.72 10.5464 11.72 10.1864 11.48 9.94638L9.49998 7.96638C9.25998 7.72638 8.89998 7.72638 8.65998 7.96638C8.41998 8.20638 8.41998 8.56638 8.65998 8.80638L10.64 10.7864Z" fill="white"/>
<path d="M22.4901 21.7963C22.2501 22.0363 22.2501 22.3963 22.4901 22.6363L24.4701 24.6163C24.5901 24.7363 24.7401 24.7963 24.8901 24.7963C25.0401 24.7963 25.1901 24.7363 25.3101 24.6163C25.5501 24.3763 25.5501 24.0163 25.3101 23.7763L23.3301 21.7963C23.1201 21.5563 22.7301 21.5563 22.4901 21.7963Z" fill="white"/>
<path d="M20 26.5363V24.1363H14V26.5363C14 27.1363 14.6 27.7363 15.2 27.7363H18.8C19.4 27.7363 20 27.1363 20 26.5363Z" fill="white"/>
<path d="M10.8801 15.7064C10.7901 17.5364 11.5101 19.2764 12.8001 20.5364C13.5201 21.2264 13.9101 22.0064 13.9701 22.9364H20.0001C20.0601 22.0064 20.4501 21.1964 21.1401 20.5664C22.4001 19.3964 23.1201 17.7164 23.1201 15.9764C23.1201 14.2664 22.4001 12.5864 21.1701 11.4164C19.9401 10.2464 18.3501 9.64638 16.6701 9.73638C13.5501 9.88638 11.0001 12.5264 10.8801 15.7064ZM14.3901 15.5864C14.6301 15.3464 14.9901 15.3464 15.2301 15.5864L17.0001 17.3564L18.7701 15.5864C19.0101 15.3464 19.3701 15.3464 19.6101 15.5864C19.8501 15.8264 19.8501 16.1864 19.6101 16.4264L17.6001 18.4664V21.1364C17.6001 21.4664 17.3301 21.7364 17.0001 21.7364C16.6701 21.7364 16.4001 21.4664 16.4001 21.1364V18.4664L14.3901 16.4564C14.1501 16.2164 14.1501 15.8264 14.3901 15.5864Z" fill="white"/>
</svg>
