<svg width="34" height="34" viewBox="0 0 34 34" fill="none" xmlns="http://www.w3.org/2000/svg">
<rect width="34" height="34" rx="4.25" fill="#24A548"/>
<path d="M26.6 15.05C26.8 15.05 27 14.85 27 14.65V12.45C27 12.15 26.8 12.05 26.6 12.05H26V9.25C26 9.15 26 9.05 25.9 8.95L24.3 7.15C24.1 6.95 23.9 6.95 23.7 7.15L22.1 8.95C22 9.05 22 9.15 22 9.25V12.05H19V9.25C19 9.15 19 9.05 18.9 8.95L17.3 7.15C17.1 7.05 16.9 7.05 16.7 7.15L15.1 8.95C15 9.05 15 9.15 15 9.25V12.05H12V9.25C12 9.15 12 9.05 11.9 8.95L10.3 7.15C10.1 7.05 9.9 7.05 9.7 7.15L8.1 8.95C8 9.05 8 9.15 8 9.25V12.05H7.4C7.2 12.05 7 12.15 7 12.45V14.65C7 14.85 7.2 15.05 7.4 15.05H8V22.05H7.4C7.2 22.05 7 22.25 7 22.45V24.65C7 24.85 7.2 25.05 7.4 25.05H8V26.65C8 26.85 8.2 27.05 8.4 27.05H11.6C11.8 27.05 12 26.85 12 26.65V25.05H15V26.65C15 26.85 15.2 27.05 15.4 27.05H18.6C18.8 27.05 19 26.85 19 26.65V25.05H22V26.65C22 26.85 22.2 27.05 22.4 27.05H25.6C25.8 27.05 26 26.85 26 26.65V25.05H26.6C26.8 25.05 27 24.85 27 24.65V22.45C27 22.25 26.8 22.05 26.6 22.05H26V15.05H26.6ZM12 22.05V15.05H15V22.05H12ZM22 22.05H19V15.05H22V22.05Z" fill="white"/>
</svg>
