<svg width="40" height="40" viewBox="0 0 40 40" fill="none" xmlns="http://www.w3.org/2000/svg">
<rect width="40" height="40" rx="5" fill="#24A548"/>
<path d="M30.6628 23.978H14.3715C12.5305 23.978 11.0342 25.4752 11.0342 27.3154C11.0342 29.1556 12.5314 30.6528 14.3715 30.6528H30.662C32.503 30.6528 34.0002 29.1556 34.0002 27.3154C34.0002 25.4752 32.503 23.978 30.6628 23.978ZM30.6628 29.5563H14.3715C13.136 29.5563 12.1306 28.5518 12.1306 27.3154C12.1306 26.0798 13.1351 25.0744 14.3715 25.0744H30.662C31.8984 25.0744 32.9029 26.0798 32.9029 27.3154C32.9029 28.5509 31.8993 29.5563 30.6628 29.5563Z" fill="white"/>
<path d="M14.4447 29.2228C15.4982 29.2228 16.3522 28.3688 16.3522 27.3153C16.3522 26.2618 15.4982 25.4077 14.4447 25.4077C13.3912 25.4077 12.5371 26.2618 12.5371 27.3153C12.5371 28.3688 13.3912 29.2228 14.4447 29.2228Z" fill="white"/>
<path d="M30.5892 29.2228C31.6427 29.2228 32.4968 28.3688 32.4968 27.3153C32.4968 26.2618 31.6427 25.4077 30.5892 25.4077C29.5357 25.4077 28.6816 26.2618 28.6816 27.3153C28.6816 28.3688 29.5357 29.2228 30.5892 29.2228Z" fill="white"/>
<path d="M16.5928 25.8401C16.8815 26.2592 17.0522 26.7676 17.0522 27.3163C17.0522 27.8649 16.8815 28.3733 16.5936 28.7924H28.4398C28.151 28.3733 27.9813 27.8649 27.9813 27.3163C27.9813 26.7685 28.151 26.2601 28.4398 25.8401H16.5928Z" fill="white"/>
<path d="M14.4447 22.1631C14.4447 22.7493 14.9216 23.2245 15.507 23.2245H20.1394H22.2483H31.4824C32.1798 23.2245 32.949 22.4177 32.5316 21.4867C32.1125 20.5565 30.8997 17.8492 30.8997 17.8492C30.6669 17.3425 30.0666 16.5874 29.0367 16.5874H24.6563V14.4164C24.6563 13.8302 24.1812 13.355 23.5949 13.355H17.0077L12.0778 11.2725L11.5825 13.5545L15.5805 15.7771L14.4447 22.1631ZM17.2877 14.8951H23.1627L19.6197 20.3841H16.3532L17.2877 14.8951Z" fill="white"/>
<path d="M8.84371 18.6429C9.54111 18.7645 9.83599 18.2334 9.95675 17.536L11.5633 10.5007C11.6849 9.80421 11.2177 9.14094 10.522 9.01931C9.82374 8.89768 9.16047 9.3632 9.03972 10.0606L8.16994 17.2253C8.04831 17.9219 8.14631 18.5204 8.84371 18.6429Z" fill="white"/>
<path d="M10.0216 18.6734C9.75034 19.0873 9.34521 19.3139 8.73356 19.2072C7.74478 19.0356 7.55227 18.2289 7.68265 17.262C6.26598 17.4387 4.95343 19.9501 7.24164 21.5627C9.75559 23.3338 13.1393 20.9336 13.1393 20.9336L10.0216 18.6734Z" fill="white"/>
</svg>
