<svg width="40" height="40" viewBox="0 0 40 40" fill="none" xmlns="http://www.w3.org/2000/svg">
<rect width="40" height="40" rx="5" fill="#24A548"/>
<path d="M31.4295 17.9703H29.3762C29.1333 16.8274 28.6803 15.7266 28.0473 14.7419L29.5046 13.2731C29.7252 13.0505 29.7252 12.6914 29.5046 12.4691L27.4698 10.4181C27.2555 10.202 26.8736 10.202 26.6593 10.4181L25.207 11.8817C24.2318 11.2458 23.142 10.7905 22.0101 10.5459V8.47123C22.0101 8.15613 21.7543 7.90039 21.4392 7.90039H18.5611C18.246 7.90039 17.9902 8.15613 17.9902 8.47123V10.5459C16.8583 10.7905 15.7682 11.2458 14.7933 11.8817L13.341 10.4181C13.1267 10.202 12.7448 10.202 12.5305 10.4181L10.4957 12.4691C10.2751 12.6917 10.2751 13.0508 10.4957 13.2731L11.9531 14.7419C11.32 15.7266 10.8667 16.8272 10.6241 17.9703H8.57084C8.25574 17.9703 8 18.226 8 18.5411V21.4418C8 21.7569 8.25574 22.0126 8.57084 22.0126H10.6241C10.867 23.1557 11.32 24.2563 11.9531 25.241L10.4957 26.7098C10.2751 26.9324 10.2751 27.2915 10.4957 27.5138L12.5305 29.5648C12.6375 29.6727 12.7836 29.7335 12.9357 29.7335C13.0879 29.7335 13.2337 29.6727 13.341 29.5648L14.7933 28.1012C15.7685 28.7371 16.8583 29.1924 17.9902 29.437V31.5117C17.9902 31.8268 18.246 32.0825 18.5611 32.0825H21.4389C21.754 32.0825 22.0098 31.8268 22.0098 31.5117V29.437C23.1418 29.1924 24.2318 28.7371 25.2068 28.1012L26.659 29.5648C26.8733 29.7809 27.2552 29.7809 27.4696 29.5648L29.5043 27.5138C29.7249 27.2912 29.7249 26.9321 29.5043 26.7098L28.047 25.241C28.68 24.2566 29.1333 23.1557 29.3759 22.0126H31.4292C31.7443 22.0126 32 21.7569 32 21.4418V18.5411C32.0003 18.226 31.7446 17.9703 31.4295 17.9703ZM20.0002 24.8254C17.3532 24.8254 15.1997 22.6568 15.1997 19.9916C15.1997 17.3261 17.3532 15.1575 20.0002 15.1575C22.6471 15.1575 24.8006 17.3261 24.8006 19.9916C24.8006 22.6568 22.6471 24.8254 20.0002 24.8254Z" fill="white"/>
<path d="M20.0006 16.2998C17.983 16.2998 16.3418 17.9561 16.3418 19.9923C16.3418 22.0282 17.983 23.6844 20.0006 23.6844C22.0182 23.6844 23.6594 22.0282 23.6594 19.9923C23.6594 17.9564 22.0179 16.2998 20.0006 16.2998Z" fill="white"/>
</svg>
