<svg width="40" height="40" viewBox="0 0 40 40" fill="none" xmlns="http://www.w3.org/2000/svg">
<rect width="40" height="40" rx="5" fill="#24A548"/>
<circle cx="20" cy="20" r="13" fill="white"/>
<path d="M15.9136 28.4536V12.2H20.1933C22.1813 12.2 23.6534 12.6021 24.6095 13.4065C25.5808 14.2108 26.0664 15.3794 26.0664 16.9121C26.0664 17.9441 25.8312 18.8319 25.3607 19.5756C24.8903 20.304 24.1922 20.8655 23.2664 21.2601C22.3559 21.6547 21.2252 21.852 19.8746 21.852H17.9624V28.4536H15.9136ZM13.9331 25.3577V23.878H21.7185V25.3577H13.9331ZM13.9331 21.852V20.1219H19.1461V21.852H13.9331ZM19.5786 20.1219C20.5044 20.1219 21.286 20.0233 21.9233 19.826C22.5759 19.6287 23.0767 19.3024 23.4258 18.8471C23.7748 18.3918 23.9494 17.7696 23.9494 16.9804C23.9494 15.9485 23.6307 15.1821 22.9933 14.6813C22.3559 14.1804 21.3618 13.93 20.0112 13.93H17.9624V20.1219H19.5786Z" fill="#24A548"/>
</svg>
