<svg width="26" height="26" viewBox="0 0 26 26" fill="none" xmlns="http://www.w3.org/2000/svg">
<circle cx="13" cy="13" r="13" fill="#24A548"/>
<path fill-rule="evenodd" clip-rule="evenodd" d="M13 20C16.866 20 20 16.866 20 13C20 9.13401 16.866 6 13 6C9.13401 6 6 9.13401 6 13C6 16.866 9.13401 20 13 20ZM13 21C17.4183 21 21 17.4183 21 13C21 8.58172 17.4183 5 13 5C8.58172 5 5 8.58172 5 13C5 17.4183 8.58172 21 13 21Z" fill="white"/>
<path fill-rule="evenodd" clip-rule="evenodd" d="M13 9C13.2761 9 13.5 9.22386 13.5 9.5V13.7324L16.2774 15.584C16.5071 15.7372 16.5692 16.0476 16.416 16.2773C16.2628 16.5071 15.9524 16.5692 15.7226 16.416L12.5 14.2676V9.5C12.5 9.22386 12.7239 9 13 9Z" fill="white"/>
</svg>
