<svg width="26" height="26" viewBox="0 0 26 26" fill="none" xmlns="http://www.w3.org/2000/svg">
<circle cx="13" cy="13" r="13" fill="#24A548"/>
<path fill-rule="evenodd" clip-rule="evenodd" d="M12.4823 6.15675C12.7958 5.94775 13.2042 5.94775 13.5177 6.15675L18.961 9.78558C19.6101 10.2183 20 10.9469 20 11.727V18.5058C20 19.279 19.3732 19.9058 18.6 19.9058H7.4C6.6268 19.9058 6 19.279 6 18.5058V11.727C6 10.9469 6.3899 10.2183 7.03903 9.78558L12.4823 6.15675ZM13 6.93333L7.55675 10.5622C7.16727 10.8218 6.93333 11.2589 6.93333 11.727V18.5058C6.93333 18.7635 7.14227 18.9725 7.4 18.9725H10.3556V15.208C10.3556 13.9194 11.4002 12.8747 12.6889 12.8747H13.7467C15.0353 12.8747 16.08 13.9194 16.08 15.208V18.9725H18.6C18.8577 18.9725 19.0667 18.7635 19.0667 18.5058V11.727C19.0667 11.2589 18.8327 10.8218 18.4432 10.5622L13 6.93333ZM15.1467 18.9725V15.208C15.1467 14.4348 14.5199 13.808 13.7467 13.808H12.6889C11.9157 13.808 11.2889 14.4348 11.2889 15.208V18.9725H15.1467Z" fill="white"/>
</svg>
