<svg width="226" height="79" viewBox="0 0 226 79" fill="none" xmlns="http://www.w3.org/2000/svg">
<path d="M206.808 47.5367L206.652 49.6049C206.026 50.0342 205.283 50.3854 204.462 50.6976C203.719 50.9317 202.897 51.1658 202.037 51.2829C201.177 51.439 200.278 51.4781 199.379 51.4781C197.58 51.4781 195.976 51.2049 194.53 50.6585C193.083 50.1122 191.87 49.3318 190.893 48.3171C189.876 47.3025 189.133 46.0538 188.586 44.5709C188.038 43.088 187.765 41.488 187.765 39.732C187.765 37.3125 188.312 35.2443 189.407 33.4882C190.502 31.7322 191.988 30.4054 193.865 29.5079C195.742 28.6103 197.853 28.142 200.199 28.142C201.021 28.142 201.803 28.1811 202.624 28.2981C203.445 28.4152 204.227 28.5713 205.009 28.8054C205.791 29.0396 206.534 29.3127 207.238 29.6639C206.964 30.3664 206.73 31.1859 206.534 32.2005L206.299 32.2395C206.026 31.8883 205.635 31.5371 205.087 31.1078C204.54 30.6786 203.797 30.2883 202.897 29.9371C201.998 29.5859 201.021 29.3908 200.004 29.3908C198.088 29.3908 196.445 29.8591 195.077 30.7956C193.708 31.7322 192.692 33.02 191.988 34.6589C191.284 36.2979 190.932 38.0149 190.932 39.8881C190.932 41.9563 191.284 43.7514 192.027 45.3123C192.77 46.8732 193.826 48.083 195.156 48.9415C196.524 49.8 198.049 50.2293 199.731 50.2293C200.825 50.2293 201.842 50.0732 202.82 49.761C203.758 49.4488 204.579 49.0586 205.205 48.6684C205.909 48.2391 206.417 47.8489 206.808 47.5367ZM185.536 28.6103L178.067 35.7906L175.252 38.6003L178.028 41.7222L181.234 45.3513L183.268 47.6537L185.927 50.9317V51.0878L185.184 51.0488H184.988C184.91 51.0488 184.832 51.0488 184.676 51.0098H184.128L183.268 51.0488L182.29 51.1268C181.43 49.9171 180.687 48.9025 180.022 48.122L172.827 39.771C172.671 39.6539 172.515 39.6149 172.358 39.6149C172.318 39.6149 172.318 39.6149 172.318 39.6539L172.279 39.693V51.1658L171.693 51.1268C171.498 51.1268 171.38 51.1268 171.302 51.0878H170.833L170.168 51.1268L169.386 51.2049V28.6103L170.207 28.6884L170.833 28.7274L171.419 28.6884L172.279 28.6103V38.7564C172.358 38.7954 172.397 38.8344 172.436 38.8344C172.592 38.8344 172.827 38.7564 173.101 38.5613C173.296 38.4052 173.531 38.2101 173.804 37.9759C174.078 37.7418 174.43 37.3906 174.86 36.9613L182.955 28.6103L183.698 28.6884L184.245 28.7274L184.754 28.6884L185.536 28.6103ZM155.739 30.1712V38.4052H160.862H161.761L162.738 38.3272L163.794 38.2491L163.716 38.7564L163.677 39.1076L163.716 39.4588L163.794 40.0442L162.738 39.9661L161.761 39.8881H160.862H155.739V49.4488C155.934 49.4488 156.834 49.4098 158.398 49.3708C159.962 49.3318 161.057 49.2927 161.722 49.2927C162.191 49.2927 162.621 49.2537 163.051 49.2147C163.481 49.1756 164.068 49.0976 164.772 48.9805L164.733 49.3318L164.693 49.6829V49.9952C164.693 50.1903 164.693 50.3464 164.733 50.4634L164.811 50.9707H152.924V28.6103H164.615L164.537 29.1957L164.498 29.5859L164.537 29.9761L164.615 30.5615C164.028 30.4444 163.599 30.3664 163.286 30.3273C162.777 30.2493 162.23 30.2103 161.643 30.2103L158.359 30.1322H155.739V30.1712ZM127.271 28.6103H146.94V51.0878L146.354 51.0488C146.159 51.0488 146.041 51.0488 145.963 51.0098H145.494H144.985L144.555 51.0488L144.008 51.0878V30.2493C143.225 30.2493 142.052 30.2493 140.527 30.2103C139.002 30.1712 137.869 30.1712 137.086 30.1712C136.344 30.1712 135.209 30.1712 133.646 30.2103C132.081 30.2493 130.947 30.2493 130.126 30.2493V51.0878L129.539 51.0488C129.344 51.0488 129.226 51.0488 129.148 51.0098H128.679L128.014 51.0488L127.232 51.1268V28.6103H127.271ZM116.674 40.8246L112.998 32.3956L109.362 40.8246H116.674ZM114.171 28.103L124.065 51.0878L123.361 51.0488H123.166C123.126 51.0488 123.009 51.0488 122.892 51.0098H122.344H121.836L121.367 51.0488L120.624 51.1268C120.116 49.761 119.763 48.7464 119.529 48.083C119.372 47.6537 119.138 47.1074 118.903 46.444C118.395 45.1172 117.808 43.7124 117.182 42.2295H108.775L107.954 44.2977L106.977 46.8732L106.233 48.9415L105.53 51.1268L105.021 51.0878C104.865 51.0878 104.748 51.0878 104.708 51.0488H104.317H103.966L103.653 51.0878L103.183 51.1658L113.468 28.1811H114.171V28.103ZM88.8716 28.6103H89.5755L90.1621 34.1516C90.3575 36.2199 90.5922 38.2491 90.8662 40.2393L91.4914 45.5855L92.2348 51.1268L91.6089 51.0878C91.4135 51.0878 91.257 51.0878 91.1785 51.0488H90.7098L89.9665 51.0878L89.1453 51.1658C89.1453 50.2683 89.0671 49.1756 88.9107 47.8489C88.8325 47.1465 88.7543 46.4831 88.6761 45.7806L88.2459 41.2539L87.8549 37.4296C87.6985 35.9467 87.5812 34.815 87.4639 34.1516C86.6818 35.5565 86.017 36.7272 85.5087 37.6638C84.883 38.8344 84.2965 39.8101 83.8663 40.7076C83.4362 41.488 83.1234 42.1124 82.8887 42.5026C82.8106 42.6588 82.4977 43.2441 81.9503 44.2977C81.7157 44.766 81.4028 45.3513 81.0509 46.0928C80.2297 47.8099 79.4868 49.3318 78.8611 50.7366H78.5091L76.7104 47.0294C76.3194 46.2489 75.8501 45.3123 75.3418 44.2197C74.8725 43.2441 74.2859 42.1515 73.6212 40.9027L70.0628 34.1516C69.9454 35.0101 69.8673 35.7906 69.789 36.5711C69.7109 37.3125 69.5936 38.132 69.4762 39.0296L68.8897 43.8685L68.4986 48.2781C68.4986 48.6294 68.4986 49.0976 68.4596 49.722C68.4204 50.3464 68.4204 50.8147 68.4204 51.0878L67.9512 51.0488C67.7948 51.0488 67.7166 51.0488 67.6384 51.0098H67.2473H66.8172L66.5044 51.0488L66.0351 51.0878L67.0518 44.3368L68.3813 34.9711C68.8114 31.8102 69.0852 29.6639 69.2025 28.5713H70.0628L72.4872 33.2541L74.1296 36.454L76.5149 40.7856C77.0624 41.8002 77.5316 42.6197 77.8835 43.205C78.3137 43.9465 78.822 44.805 79.4085 45.7806L81.9503 41.1759L85.3523 34.9321C85.8606 33.9955 86.369 33.137 86.7991 32.2785C87.1902 31.5761 87.5812 30.8737 87.9722 30.1712C88.3633 29.5469 88.637 29.0396 88.8716 28.6103ZM23.1385 49.4098H37.2548L35.6516 45.3904L32.9535 38.6783L30.9983 33.9565L30.2945 32.2005H30.1771L28.4566 36.1419L26.6969 40.0832C25.9539 41.8392 25.3283 43.4002 24.8199 44.727C24.3507 46.0538 23.7641 47.6147 23.1385 49.4098ZM61.4991 39.1076C61.4991 38.0149 61.46 37.1174 61.3427 36.376C61.2254 35.6345 61.0689 34.8541 60.7561 34.0736C60.4824 33.2931 60.0913 32.5517 59.583 31.8883C59.1138 31.2249 58.5272 30.6395 57.9016 30.1712C57.2759 29.703 56.5329 29.3518 55.7509 29.0786C54.9688 28.8054 54.1867 28.6884 53.4047 28.6884C52.1143 28.6884 50.9411 28.9615 49.9244 29.4688C48.8686 29.9761 48.0084 30.7176 47.2654 31.6932C46.5224 32.6687 45.9749 33.8395 45.623 35.2052C45.232 36.5711 45.0756 38.093 45.0756 39.693C45.0756 41.293 45.2711 42.6978 45.6622 43.9465C46.0532 45.1953 46.6398 46.2879 47.3827 47.1855C48.1648 48.083 49.0251 48.7464 50.0027 49.1756C51.0193 49.6049 52.036 49.839 53.131 49.839C54.5387 49.839 55.79 49.4879 56.8457 48.8245C57.9016 48.161 58.7619 47.2635 59.4657 46.1708C60.1305 45.0782 60.6388 43.9075 60.9908 42.5807C61.3427 41.371 61.4991 40.1612 61.4991 39.1076ZM53.0918 50.9707C51.4885 50.9707 50.0027 50.6976 48.634 50.1513C47.2654 49.6049 46.1314 48.8245 45.1538 47.7708C44.1762 46.7562 43.4332 45.5074 42.9249 44.0636C42.6512 43.3221 42.4556 42.5807 42.3383 41.8392C42.221 41.0588 42.1428 40.2393 42.1428 39.3418C42.1428 37.5857 42.4166 35.9857 42.964 34.5419C43.5115 33.098 44.2935 31.8493 45.3493 30.7956C46.3269 29.781 47.5 29.0005 48.8295 28.4542C50.1591 27.8689 51.5668 27.5957 53.131 27.5957C54.5777 27.5957 55.9464 27.8298 57.315 28.2591C58.6836 28.6884 59.8959 29.3908 60.9516 30.2883C62.0075 31.2249 62.8677 32.3956 63.4934 33.8004C64.1191 35.2443 64.4318 36.8833 64.4318 38.7954C64.4318 41.1759 63.9627 43.2831 62.9851 45.1172C62.0465 46.9513 60.6779 48.3952 58.9573 49.4098C57.1977 50.4634 55.2425 50.9707 53.0918 50.9707ZM19.6191 49.4098H21.0269L23.2558 44.4538L25.993 38.2101L28.4956 32.3175C29.2386 30.5615 29.747 29.3127 29.9816 28.6103H31.5458L34.4394 35.4004L37.9978 43.9465L40.344 49.4098H41.7517C41.6736 49.761 41.6344 50.1903 41.6344 50.7366C41.6344 51.439 41.6736 51.9853 41.7517 52.3756H41.478C41.0479 51.7512 40.3831 51.3609 39.4447 51.2049C38.4671 51.0488 36.942 51.0098 34.8695 51.0098H26.8142C26.3059 51.0098 25.7584 51.0098 25.1719 51.0098C24.6244 51.0098 23.9987 51.0488 23.4122 51.0488C23.0603 51.0488 22.7083 51.0878 22.3564 51.1268C22.0436 51.2049 21.6916 51.2829 21.3397 51.4C20.7531 51.5951 20.2448 51.9073 19.8147 52.3756H19.6191C19.6973 52.0634 19.7365 51.5171 19.7365 50.7366L19.6191 49.4098Z" fill="#98A2B1"/>
</svg>
