<svg width="226" height="79" viewBox="0 0 226 79" fill="none" xmlns="http://www.w3.org/2000/svg">
<g clip-path="url(#clip0_840_385)">
<mask id="mask0_840_385" style="mask-type:luminance" maskUnits="userSpaceOnUse" x="28" y="25" width="170" height="29">
<path d="M197.572 25.6904H28.0477V53.3095H197.572V25.6904Z" fill="white"/>
</mask>
<g mask="url(#mask0_840_385)">
<path d="M47.5818 41.5527H45.6582V53.1049H47.5818V41.5527Z" fill="#98A2B1"/>
<path d="M52.3874 41.5527H50.4637V53.1049H52.3874V41.5527Z" fill="#98A2B1"/>
<path d="M34.0963 41.2695C30.7337 41.2695 28.078 43.9906 28.0477 47.3288C28.0477 50.6721 30.7337 53.3882 34.0963 53.3882C37.4588 53.3882 40.1449 50.6721 40.1449 47.3288C40.1751 43.9856 37.4336 41.2695 34.0963 41.2695Z" fill="#98A2B1"/>
<path d="M39.8928 35.3516H28.3612V37.2785H39.8928V35.3516Z" fill="#98A2B1"/>
<path d="M39.8928 25.7217H28.3612V27.6487H39.8928V25.7217Z" fill="#98A2B1"/>
<path d="M39.8928 30.5371H28.3612V32.4642H39.8928V30.5371Z" fill="#98A2B1"/>
<path d="M57.1948 41.5527H55.2712V53.1049H57.1948V41.5527Z" fill="#98A2B1"/>
<path d="M142.107 30.2529C136.851 30.2529 133.23 33.9907 133.23 38.9474V39.0031C133.23 44.1266 136.851 47.6419 142.051 47.6419C147.251 47.6419 150.927 44.1317 150.927 38.9474V38.917C150.927 33.9907 147.165 30.2529 142.107 30.2529ZM147.11 39.0031C147.11 41.9214 145.131 44.2127 142.107 44.2127C139.082 44.2127 137.103 41.9214 137.103 38.9474V38.917C137.103 35.8318 139.223 33.6518 142.051 33.6518C145.131 33.6518 147.11 35.8318 147.11 38.9474V39.0031Z" fill="#98A2B1"/>
<path d="M162.066 30.5371H158.421V47.3292H170.346V43.991H162.066V30.5371Z" fill="#98A2B1"/>
<path d="M118.558 40.8449H122.204V43.2828C121.3 43.9352 120.139 44.2741 118.785 44.2741C115.903 44.2741 113.752 42.1801 113.752 38.9482V38.9178C113.752 35.9994 115.816 33.6526 118.528 33.6526C120.396 33.6526 121.466 34.1635 122.855 35.3521L125.172 32.55C123.224 30.8506 121.244 30.2588 118.644 30.2588C113.727 30.2588 109.94 33.9966 109.94 38.9532V39.0089C109.94 44.4461 114.065 47.6477 118.674 47.6477C121.36 47.6477 123.677 46.7424 125.768 44.9317V37.6837H118.558V40.855V40.8449Z" fill="#98A2B1"/>
<path d="M186.91 30.4268H183.548L176.454 47.3302H180.155L181.679 43.5621H188.693L190.192 47.3302H194.064L186.915 30.4268H186.91ZM182.983 40.3098L185.189 34.8423L187.395 40.3098H182.987H182.983Z" fill="#98A2B1"/>
<path d="M68.7264 33.936H73.7854V47.3292H77.3752V33.936H82.52V30.5371H68.7264V33.936Z" fill="#98A2B1"/>
<path d="M42.6337 37.2788H60.2139L51.4237 25.6104L42.6337 37.2788Z" fill="#98A2B1"/>
<path d="M93.6579 40.5062H101.489V37.2489H93.6579V33.8247H102.559V30.5371H90.0127V47.3292H102.675V44.0467H93.6579V40.5062Z" fill="#98A2B1"/>
</g>
</g>
<defs>
<clipPath id="clip0_840_385">
<rect width="169.524" height="28.5714" fill="white" transform="translate(28.0479 25.6904)"/>
</clipPath>
</defs>
</svg>
