<svg width="226" height="79" viewBox="0 0 226 79" fill="none" xmlns="http://www.w3.org/2000/svg">
<path d="M160.238 62.9272C160.238 62.9568 160.231 62.984 160.216 63.0088C160.201 63.0335 160.176 63.0532 160.142 63.0681C160.112 63.0829 160.068 63.0953 160.009 63.1052C159.954 63.115 159.885 63.12 159.801 63.12C159.712 63.12 159.638 63.115 159.579 63.1052C159.525 63.0953 159.48 63.0829 159.446 63.0681C159.416 63.0532 159.394 63.0335 159.379 63.0088C159.364 62.984 159.357 62.9568 159.357 62.9272V59.82H155.573V62.9272C155.573 62.9568 155.566 62.984 155.551 63.0088C155.536 63.0335 155.512 63.0532 155.477 63.0681C155.448 63.0829 155.403 63.0953 155.344 63.1052C155.29 63.115 155.218 63.12 155.129 63.12C155.045 63.12 154.974 63.115 154.914 63.1052C154.86 63.0953 154.816 63.0829 154.781 63.0681C154.747 63.0532 154.722 63.0335 154.707 63.0088C154.697 62.984 154.692 62.9568 154.692 62.9272V56.216C154.692 56.1863 154.697 56.1592 154.707 56.1344C154.722 56.1097 154.747 56.0899 154.781 56.0751C154.816 56.0553 154.86 56.043 154.914 56.038C154.974 56.0281 155.045 56.0232 155.129 56.0232C155.218 56.0232 155.29 56.0281 155.344 56.038C155.403 56.043 155.448 56.0553 155.477 56.0751C155.512 56.0899 155.536 56.1097 155.551 56.1344C155.566 56.1592 155.573 56.1863 155.573 56.216V59.0636H159.357V56.216C159.357 56.1863 159.364 56.1592 159.379 56.1344C159.394 56.1097 159.416 56.0899 159.446 56.0751C159.48 56.0553 159.525 56.043 159.579 56.038C159.638 56.0281 159.712 56.0232 159.801 56.0232C159.885 56.0232 159.954 56.0281 160.009 56.038C160.068 56.043 160.112 56.0553 160.142 56.0751C160.176 56.0899 160.201 56.1097 160.216 56.1344C160.231 56.1592 160.238 56.1863 160.238 56.216V62.9272Z" fill="#98A2B1"/>
<path d="M152.249 62.9272C152.249 62.9766 152.232 63.0162 152.197 63.0458C152.167 63.0706 152.126 63.0879 152.071 63.0977C152.022 63.1126 151.953 63.12 151.864 63.12C151.78 63.12 151.708 63.1126 151.649 63.0977C151.59 63.0879 151.543 63.0706 151.509 63.0458C151.479 63.0162 151.464 62.9766 151.464 62.9272V62.1782C151.163 62.5045 150.83 62.7566 150.465 62.9346C150.104 63.1126 149.729 63.2016 149.339 63.2016C148.989 63.2016 148.673 63.1571 148.391 63.0681C148.115 62.9742 147.88 62.8431 147.688 62.6751C147.495 62.502 147.347 62.2944 147.244 62.0521C147.14 61.8099 147.088 61.538 147.088 61.2364C147.088 60.8656 147.165 60.5443 147.318 60.2724C147.471 59.9955 147.688 59.7656 147.969 59.5827C148.251 59.3998 148.589 59.2639 148.984 59.1749C149.379 59.0809 149.818 59.034 150.302 59.034H151.368V58.4555C151.368 58.1688 151.338 57.9167 151.279 57.6991C151.22 57.4767 151.123 57.2913 150.99 57.143C150.857 56.9947 150.684 56.8834 150.472 56.8093C150.26 56.7351 150.001 56.698 149.694 56.698C149.398 56.698 149.132 56.7351 148.895 56.8093C148.658 56.8785 148.451 56.9576 148.273 57.0466C148.095 57.1356 147.947 57.2171 147.829 57.2913C147.715 57.3605 147.634 57.3951 147.584 57.3951C147.555 57.3951 147.528 57.3902 147.503 57.3803C147.478 57.3704 147.456 57.3531 147.436 57.3284C147.421 57.2987 147.409 57.2641 147.399 57.2245C147.394 57.18 147.392 57.1281 147.392 57.0688C147.392 56.965 147.399 56.8834 147.414 56.8241C147.429 56.7598 147.466 56.698 147.525 56.6387C147.589 56.5744 147.7 56.5003 147.858 56.4162C148.016 56.3322 148.196 56.2556 148.399 56.1864C148.606 56.1122 148.828 56.0529 149.065 56.0084C149.302 55.9639 149.539 55.9416 149.776 55.9416C150.235 55.9416 150.622 55.9985 150.938 56.1122C151.254 56.221 151.509 56.3792 151.701 56.5868C151.898 56.7944 152.039 57.0515 152.123 57.358C152.207 57.6596 152.249 58.0032 152.249 58.3888V62.9272ZM151.368 59.7607H150.146C149.791 59.7607 149.48 59.7928 149.213 59.8571C148.947 59.9214 148.725 60.0153 148.547 60.1389C148.369 60.2625 148.236 60.4108 148.147 60.5838C148.063 60.7569 148.021 60.9546 148.021 61.1771C148.021 61.5627 148.142 61.8717 148.384 62.104C148.631 62.3315 148.976 62.4452 149.421 62.4452C149.771 62.4452 150.097 62.3562 150.398 62.1782C150.704 61.9953 151.027 61.716 151.368 61.3402V59.7607Z" fill="#98A2B1"/>
<path d="M145.526 62.8382C145.531 62.942 145.509 63.0161 145.459 63.0606C145.415 63.1002 145.304 63.1199 145.126 63.1199C145.037 63.1199 144.963 63.1175 144.904 63.1125C144.845 63.1076 144.798 63.0977 144.763 63.0829C144.729 63.073 144.704 63.0581 144.689 63.0384C144.674 63.0137 144.665 62.984 144.66 62.9494L144.134 58.8708C144.119 58.7274 144.102 58.5766 144.082 58.4184C144.067 58.2553 144.052 58.0921 144.038 57.929C144.023 57.7658 144.008 57.6027 143.993 57.4395C143.978 57.2764 143.961 57.1207 143.941 56.9724L143.934 56.8092C143.885 56.9526 143.833 57.1058 143.779 57.269C143.724 57.4272 143.667 57.5879 143.608 57.751C143.549 57.9142 143.49 58.0798 143.431 58.2479C143.376 58.411 143.324 58.5667 143.275 58.715L141.75 62.8307C141.73 62.8851 141.708 62.9321 141.683 62.9716C141.663 63.0062 141.636 63.0359 141.602 63.0606C141.572 63.0804 141.533 63.0952 141.483 63.1051C141.434 63.115 141.372 63.1199 141.298 63.1199C141.224 63.1199 141.162 63.115 141.113 63.1051C141.069 63.1002 141.029 63.0878 140.995 63.068C140.96 63.0483 140.93 63.0211 140.906 62.9865C140.881 62.9469 140.859 62.8975 140.839 62.8382L139.373 58.715C139.319 58.5717 139.262 58.4209 139.203 58.2627C139.148 58.0995 139.094 57.9364 139.04 57.7733C138.986 57.6052 138.931 57.4395 138.877 57.2764C138.828 57.1133 138.783 56.9575 138.744 56.8092L138.729 56.9724C138.714 57.1207 138.697 57.2764 138.677 57.4395C138.662 57.6027 138.645 57.7658 138.625 57.929C138.605 58.0921 138.586 58.2553 138.566 58.4184C138.551 58.5766 138.536 58.7274 138.522 58.8708L138.025 62.8678C138.02 62.9222 138.011 62.9667 137.996 63.0013C137.981 63.0359 137.954 63.0606 137.914 63.0755C137.88 63.0952 137.833 63.1076 137.774 63.1125C137.714 63.1175 137.638 63.1199 137.544 63.1199C137.45 63.1199 137.376 63.115 137.322 63.1051C137.268 63.0952 137.228 63.0804 137.204 63.0606C137.179 63.0359 137.164 63.0062 137.159 62.9716C137.154 62.937 137.157 62.8925 137.167 62.8382L137.944 56.4607C137.969 56.3321 138.016 56.2333 138.085 56.1641C138.159 56.0948 138.267 56.0602 138.41 56.0602H138.795C138.909 56.0602 139.005 56.0701 139.084 56.0899C139.163 56.1047 139.23 56.1344 139.284 56.1789C139.343 56.2234 139.393 56.2827 139.432 56.3569C139.472 56.4261 139.511 56.5151 139.551 56.6238L140.661 59.7755C140.726 59.9633 140.79 60.1487 140.854 60.3317C140.918 60.5146 140.98 60.695 141.039 60.873C141.098 61.051 141.152 61.224 141.202 61.3921C141.256 61.5602 141.306 61.7233 141.35 61.8815H141.365C141.414 61.7184 141.466 61.5478 141.52 61.3699C141.575 61.1919 141.631 61.0114 141.691 60.8285C141.75 60.6456 141.811 60.4651 141.876 60.2872C141.94 60.1042 142.002 59.9287 142.061 59.7607L143.179 56.6238C143.213 56.525 143.25 56.4409 143.29 56.3717C143.329 56.2975 143.376 56.2382 143.431 56.1937C143.485 56.1492 143.549 56.1171 143.623 56.0973C143.697 56.0726 143.786 56.0602 143.89 56.0602H144.275C144.418 56.0602 144.526 56.0874 144.6 56.1418C144.679 56.1962 144.726 56.2951 144.741 56.4384L145.526 62.8382Z" fill="#98A2B1"/>
<path d="M135.819 60.8656C135.819 61.1771 135.762 61.4737 135.649 61.7555C135.535 62.0373 135.353 62.2845 135.101 62.4971C134.854 62.7047 134.536 62.8728 134.146 63.0013C133.756 63.1249 133.284 63.1867 132.731 63.1867C132.613 63.1867 132.49 63.1843 132.361 63.1793C132.238 63.1793 132.114 63.1744 131.991 63.1645C131.868 63.1595 131.744 63.1521 131.621 63.1422C131.502 63.1323 131.384 63.12 131.265 63.1052C131.073 63.0804 130.927 63.0162 130.829 62.9123C130.735 62.8085 130.688 62.6528 130.688 62.4452V56.216C130.688 56.1863 130.693 56.1592 130.703 56.1344C130.717 56.1097 130.742 56.0899 130.777 56.0751C130.811 56.0553 130.856 56.043 130.91 56.038C130.969 56.0281 131.041 56.0232 131.125 56.0232C131.214 56.0232 131.285 56.0281 131.339 56.038C131.399 56.043 131.443 56.0553 131.473 56.0751C131.507 56.0899 131.532 56.1097 131.547 56.1344C131.562 56.1592 131.569 56.1863 131.569 56.216V58.7447C131.757 58.7299 131.961 58.72 132.184 58.7151C132.406 58.7052 132.63 58.7003 132.857 58.7003C133.385 58.7003 133.837 58.7522 134.212 58.856C134.587 58.9598 134.893 59.1081 135.13 59.3009C135.367 59.4888 135.54 59.7162 135.649 59.9832C135.762 60.2452 135.819 60.5393 135.819 60.8656ZM134.901 60.9324C134.901 60.7099 134.864 60.5097 134.79 60.3317C134.721 60.1488 134.605 59.9955 134.442 59.8719C134.279 59.7434 134.067 59.6445 133.805 59.5753C133.543 59.5061 133.223 59.4715 132.842 59.4715C132.615 59.4715 132.391 59.4789 132.169 59.4937C131.947 59.5036 131.747 59.516 131.569 59.5308V62.3339C131.757 62.3537 131.956 62.3735 132.169 62.3933C132.386 62.4081 132.633 62.4155 132.909 62.4155C133.585 62.4155 134.086 62.287 134.412 62.0299C134.738 61.7679 134.901 61.402 134.901 60.9324Z" fill="#98A2B1"/>
<path d="M128.207 62.9271C128.207 62.9568 128.2 62.984 128.185 63.0087C128.17 63.0334 128.146 63.0532 128.111 63.068C128.082 63.0829 128.037 63.0952 127.978 63.1051C127.924 63.115 127.854 63.1199 127.771 63.1199C127.682 63.1199 127.608 63.115 127.548 63.1051C127.494 63.0952 127.45 63.0829 127.415 63.068C127.381 63.0532 127.356 63.0334 127.341 63.0087C127.331 62.984 127.326 62.9568 127.326 62.9271V56.8315H125.216C125.132 57.6274 125.036 58.3393 124.927 58.9672C124.824 59.5901 124.705 60.1389 124.572 60.6135C124.439 61.0831 124.291 61.4836 124.128 61.8148C123.965 62.1411 123.785 62.408 123.587 62.6157C123.395 62.8184 123.182 62.9667 122.95 63.0606C122.723 63.1546 122.477 63.2015 122.21 63.2015C122.18 63.2015 122.153 63.1941 122.129 63.1793C122.104 63.1694 122.082 63.1496 122.062 63.1199C122.047 63.0903 122.035 63.0507 122.025 63.0013C122.02 62.9469 122.018 62.8802 122.018 62.8011C122.018 62.717 122.02 62.6478 122.025 62.5934C122.035 62.5391 122.047 62.4946 122.062 62.46C122.077 62.4253 122.094 62.4031 122.114 62.3932C122.138 62.3784 122.166 62.371 122.195 62.371C122.378 62.371 122.548 62.3289 122.706 62.2449C122.869 62.1559 123.02 62.015 123.158 61.8222C123.296 61.6294 123.424 61.3797 123.543 61.0732C123.661 60.7667 123.77 60.3935 123.869 59.9535C123.972 59.5085 124.068 58.9944 124.157 58.411C124.246 57.8276 124.33 57.1602 124.409 56.4088C124.419 56.2901 124.449 56.2036 124.498 56.1492C124.552 56.0899 124.621 56.0602 124.705 56.0602H127.904C127.988 56.0602 128.059 56.0899 128.119 56.1492C128.178 56.2036 128.207 56.2901 128.207 56.4088V62.9271Z" fill="#98A2B1"/>
<path d="M118.5 65.5894C118.476 65.6438 118.424 65.6883 118.345 65.7229C118.266 65.7624 118.14 65.7822 117.967 65.7822C117.879 65.7822 117.805 65.7773 117.745 65.7674C117.686 65.7575 117.639 65.7377 117.605 65.7081C117.575 65.6833 117.558 65.6487 117.553 65.6042C117.548 65.5647 117.558 65.5152 117.582 65.4559L118.53 63.0755C118.491 63.0607 118.456 63.0359 118.426 63.0013C118.397 62.9667 118.377 62.9321 118.367 62.8975L115.931 56.3495C115.907 56.2803 115.894 56.2259 115.894 56.1863C115.894 56.1418 115.907 56.1072 115.931 56.0825C115.961 56.0578 116.005 56.043 116.065 56.038C116.129 56.0281 116.213 56.0232 116.316 56.0232C116.425 56.0232 116.511 56.0281 116.575 56.038C116.64 56.043 116.689 56.0529 116.723 56.0677C116.763 56.0825 116.79 56.1023 116.805 56.127C116.825 56.1517 116.842 56.1814 116.857 56.216L118.952 62.0744H118.982L121.04 56.216C121.065 56.1468 121.097 56.1023 121.136 56.0825C121.181 56.0578 121.238 56.043 121.307 56.038C121.376 56.0281 121.46 56.0232 121.558 56.0232C121.652 56.0232 121.729 56.0281 121.788 56.038C121.852 56.0479 121.899 56.0652 121.929 56.0899C121.958 56.1147 121.973 56.1493 121.973 56.1938C121.973 56.2333 121.961 56.2852 121.936 56.3495L118.5 65.5894Z" fill="#98A2B1"/>
<path fill-rule="evenodd" clip-rule="evenodd" d="M89.5513 63.0903C102.869 63.0903 113.678 52.0882 113.678 38.501C113.678 24.9138 102.869 13.9117 89.5513 13.9117C76.2337 13.9117 65.4251 24.9138 65.4251 38.501C65.4251 52.0882 76.2337 63.0903 89.5513 63.0903ZM89.5513 63.5161C103.111 63.5161 114.103 52.3164 114.103 38.501C114.103 24.6856 103.111 13.4859 89.5513 13.4859C75.992 13.4859 65 24.6856 65 38.501C65 52.3164 75.992 63.5161 89.5513 63.5161Z" fill="#98A2B1"/>
<path fill-rule="evenodd" clip-rule="evenodd" d="M65.0532 68.9448V10.4521H65.4783V68.9448H65.0532ZM113.943 68.9448V10.4521H114.368V68.9448H113.943Z" fill="#98A2B1"/>
<path d="M85.1406 63.0903H65V61.3339H69.415C70.1608 61.3339 70.8761 61.0371 71.4035 60.5089C71.9309 59.9807 72.2272 59.2643 72.2272 58.5173V18.3189C72.2272 17.7203 71.954 17.1546 71.4854 16.783C71.1398 16.509 70.7121 16.36 70.2714 16.36H65V13.9117H85.1406V16.36H80.4873C80.0301 16.36 79.5917 16.5419 79.2685 16.8656C78.9452 17.1894 78.7636 17.6284 78.7636 18.0863V38.022L99.9964 17.2776C100.283 16.9971 100.445 16.6125 100.445 16.2109V13.9117H112.455V16.36H107.865C106.646 16.36 105.468 16.807 104.554 17.6168L85.7491 34.2891C85.3622 34.6321 85.1406 35.1249 85.1406 35.6425C85.1406 36.1419 85.347 36.6191 85.7107 36.9608L111.658 61.3339H114.103V63.0903H106.185L79.4545 39.6719H78.7636V58.5173C78.7636 59.2643 79.0599 59.9807 79.5873 60.5089C80.1147 61.0371 80.83 61.3339 81.5759 61.3339H85.1406V63.0903Z" fill="#98A2B1"/>
</svg>
