<svg width="34" height="34" viewBox="0 0 34 34" fill="none" xmlns="http://www.w3.org/2000/svg">
<rect width="34" height="34" rx="4.25" fill="#24A548"/>
<path d="M28.5941 10.8682C29.0779 10.3844 29.0779 9.58613 28.5941 9.07812L25.9573 6.44135C25.4735 5.95754 24.6752 5.95754 24.1672 6.44135L23.0786 7.52992L27.5055 11.9568L28.5941 10.8682Z" fill="#F9F9FB"/>
<path d="M28.8843 23.9554L22.1835 17.2547L26.8764 12.5617L22.4496 8.13481L17.7566 12.8278L11.0558 6.127C10.8865 5.95767 10.5962 5.95767 10.4027 6.127L6.14515 10.3845C6.04839 10.4813 6 10.5781 6 10.699C6 10.82 6.04839 10.9409 6.14515 11.0135L12.8459 17.7143L7.524 23.0362C7.37886 23.1813 7.2821 23.3507 7.25791 23.5442L6.38706 27.7775C6.33868 27.9711 6.38705 28.1646 6.48381 28.3097C6.62895 28.5274 6.91924 28.6484 7.16114 28.6L11.4187 27.7292C11.6122 27.6808 11.8057 27.584 11.9267 27.463L17.2486 22.1411L23.9494 28.8419C24.0462 28.9387 24.1671 28.9871 24.2639 28.9871C24.3606 28.9871 24.5058 28.9387 24.5783 28.8419L28.8359 24.5844C28.9326 24.4876 28.981 24.3909 28.981 24.2699C29.0294 24.149 28.981 24.028 28.8843 23.9554ZM11.3219 26.9067L8.63678 27.463L7.59658 26.4229L8.15296 23.7377L8.17715 23.7135L9.09639 23.8829L9.0722 24.6811C9.0722 24.7537 9.12058 24.8021 9.19315 24.8021L10.3301 24.7537L10.2817 25.8907C10.2817 25.9632 10.3301 26.0116 10.4027 26.0116L11.201 25.9874L11.3219 26.9067ZM7.16114 10.7232L10.7655 7.11881L11.9025 8.25577L10.1124 10.0459C9.94306 10.2152 9.94306 10.5055 10.1124 10.699C10.2092 10.7958 10.3301 10.8442 10.4269 10.8442C10.5236 10.8442 10.6688 10.7958 10.7414 10.699L12.5314 8.90891L13.6684 10.0459L11.8783 11.836C11.709 12.0053 11.709 12.2956 11.8783 12.4891C11.9751 12.5859 12.096 12.6343 12.1928 12.6343C12.2896 12.6343 12.4347 12.5859 12.5073 12.4891L14.2974 10.699L15.4343 11.836L13.6442 13.6261C13.4749 13.7954 13.4749 14.0857 13.6442 14.2792C13.741 14.376 13.8619 14.4244 13.9587 14.4244C14.0796 14.4244 14.2006 14.376 14.2732 14.2792L16.0633 12.4891L17.0793 13.5051L13.4749 17.1095L7.16114 10.7232ZM24.3122 27.8743L17.9501 21.5122L21.5545 17.9078L22.5705 18.9238L20.7804 20.7139C20.6111 20.8832 20.6111 21.1735 20.7804 21.367C20.8772 21.4638 20.9981 21.5122 21.0949 21.5122C21.1917 21.5122 21.3368 21.4638 21.4094 21.367L23.1995 19.5769L24.3364 20.7139L22.5463 22.504C22.377 22.6733 22.377 22.9636 22.5463 23.1572C22.6431 23.2539 22.7641 23.3023 22.8608 23.3023C22.9576 23.3023 23.1027 23.2539 23.1753 23.1572L24.9654 21.367L26.1024 22.504L24.3122 24.2941C24.1429 24.4634 24.1429 24.7537 24.3122 24.9473C24.409 25.044 24.53 25.0924 24.6267 25.0924C24.7235 25.0924 24.8686 25.044 24.9412 24.9473L26.7313 23.1572L27.8683 24.2941L24.3122 27.8743Z" fill="#F9F9FB"/>
</svg>
