<svg width="34" height="34" viewBox="0 0 34 34" fill="none" xmlns="http://www.w3.org/2000/svg">
<rect width="34" height="34" rx="4.25" fill="#24A548"/>
<path d="M28 8.77136H25.5439V14.3505H28V8.77136Z" fill="white"/>
<path d="M23.4511 16.4052H17.9053V18.8638H23.4511V16.4052Z" fill="white"/>
<path d="M13.5424 8H8V10.4955H13.5424V8Z" fill="white"/>
<path d="M13.0647 11.0643H8.48828V17.4026H13.0647V11.0643Z" fill="white"/>
<path d="M22.9801 19.4538V19.5721C22.9591 21.48 22.1865 23.3027 20.8299 24.6444C19.4733 25.9862 17.6422 26.7388 15.7342 26.7388C13.8261 26.7388 11.9951 25.9862 10.6385 24.6444C9.28191 23.3027 8.50927 21.48 8.48828 19.5721V17.9286H13.0647V19.5721C13.0583 19.9267 13.1226 20.2791 13.2538 20.6086C13.3851 20.9381 13.5807 21.2382 13.8292 21.4912C14.0778 21.7443 14.3742 21.9453 14.7013 22.0825C15.0284 22.2197 15.3795 22.2904 15.7342 22.2904C16.0889 22.2904 16.44 22.2197 16.7671 22.0825C17.0942 21.9453 17.3906 21.7443 17.6392 21.4912C17.8877 21.2382 18.0833 20.9381 18.2146 20.6086C18.3458 20.2791 18.4101 19.9267 18.4037 19.5721V19.4538H22.9801Z" fill="white"/>
<path d="M24.5049 9.27621C22.8867 9.27621 21.3347 9.91906 20.1904 11.0633C19.0462 12.2076 18.4033 13.7596 18.4033 15.3778V15.8774H22.9797V15.3778C22.9797 14.9733 23.1404 14.5854 23.4264 14.2993C23.7125 14.0133 24.1004 13.8526 24.5049 13.8526H25.0054V9.27271L24.5049 9.27621Z" fill="white"/>
</svg>
