<svg width="34" height="34" viewBox="0 0 34 34" fill="none" xmlns="http://www.w3.org/2000/svg">
<rect width="34" height="34" rx="4.25" fill="#24A548"/>
<path fill-rule="evenodd" clip-rule="evenodd" d="M19.2705 7.95976C20.1676 8.18449 21.0131 8.53921 21.7858 9.00276L23.6093 7.81494C23.9926 7.56529 24.4621 7.4915 24.7855 7.81494L26.1851 9.21452C26.5085 9.53795 26.4347 10.0074 26.1851 10.3907L24.9971 12.2143C25.4605 12.9871 25.8153 13.8324 26.0399 14.7294L28.1683 15.1787C28.6159 15.2732 29 15.5529 29 16.0104V17.9897C29 18.4471 28.6158 18.7268 28.1683 18.8213L26.0402 19.2705C25.8155 20.1676 25.4608 21.0131 24.9972 21.7858L26.1851 23.6093C26.4347 23.9926 26.5085 24.4621 26.1851 24.7855L24.7855 26.1851C24.462 26.5085 23.9926 26.4347 23.6093 26.1851L21.7857 24.9971C21.0129 25.4605 20.1676 25.8153 19.2706 26.0399L18.8213 28.1683C18.7268 28.6159 18.4471 29 17.9896 29H16.0103C15.5529 29 15.2731 28.6158 15.1787 28.1683L14.7294 26.0402C13.8324 25.8155 12.9869 25.4608 12.2142 24.9972L10.3907 26.1851C10.0074 26.4347 9.53794 26.5085 9.2145 26.1851L7.81493 24.7855C7.4915 24.462 7.56531 23.9926 7.81493 23.6093L9.00285 21.7857C8.53951 21.0129 8.18471 20.1676 7.96009 19.2706L5.8317 18.8213C5.38413 18.7268 5 18.4471 5 17.9896V16.0103C5 15.5529 5.38417 15.2731 5.8317 15.1787L7.95976 14.7294C8.18449 13.8324 8.53918 12.9869 9.00269 12.2141L7.81494 10.3907C7.56529 10.0074 7.4915 9.53794 7.81494 9.2145L9.21452 7.81493C9.53795 7.4915 10.0074 7.56531 10.3907 7.81493L12.2141 9.00269C12.9869 8.53921 13.8324 8.18454 14.7294 7.95981L15.1787 5.8317C15.2732 5.38413 15.5529 5 16.0104 5H17.9897C18.4471 5 18.7268 5.38417 18.8213 5.8317L19.2705 7.95976ZM17 10.8148C20.416 10.8148 23.1852 13.584 23.1852 17C23.1852 20.416 20.416 23.1852 17 23.1852C13.584 23.1852 10.8148 20.416 10.8148 17C10.8148 13.584 13.584 10.8148 17 10.8148Z" fill="#F9F9FB"/>
<path fill-rule="evenodd" clip-rule="evenodd" d="M21.942 19.9531C21.556 20.5976 21.0479 21.1604 20.4491 21.6092L18.7503 19.9103C17.6907 20.3509 16.4244 20.1404 15.5626 19.2786C14.7517 18.4678 14.5175 17.2988 14.8595 16.2808L16.4259 17.8473L17.8027 17.3884L18.2617 16.0115L16.6953 14.4451C17.7132 14.1031 18.8822 14.3373 19.693 15.1481C20.5548 16.01 20.7653 17.2763 20.3248 18.3359L21.942 19.9531Z" fill="#F9F9FB"/>
</svg>
