<svg width="34" height="34" viewBox="0 0 34 34" fill="none" xmlns="http://www.w3.org/2000/svg">
<rect width="34" height="34" rx="5" fill="#24A548"/>
<path d="M16.5873 7.61518C16.7291 7.23211 17.2709 7.23211 17.4127 7.61518L18.6944 11.0791C19.5047 13.2688 21.2312 14.9953 23.4209 15.8056L26.8848 17.0873C27.2679 17.2291 27.2679 17.7709 26.8848 17.9127L23.4209 19.1944C21.2312 20.0047 19.5047 21.7312 18.6944 23.9209L17.4127 27.3848C17.2709 27.7679 16.7291 27.7679 16.5873 27.3848L15.3056 23.9209C14.4953 21.7312 12.7688 20.0047 10.5791 19.1944L7.11518 17.9127C6.73211 17.7709 6.73211 17.2291 7.11518 17.0873L10.5791 15.8056C12.7688 14.9953 14.4953 13.2688 15.3056 11.0791L16.5873 7.61518Z" fill="#F9F9FB"/>
</svg>
