<svg width="86" height="54" viewBox="0 0 86 54" fill="none" xmlns="http://www.w3.org/2000/svg">
<path d="M3.98588 36.0258L42.9985 3.13156L82.011 36.0258H85.7264L42.9985 0L0.270508 36.0258H3.98588Z" fill="white"/>
<path d="M13.4209 47.6974C13.4209 44.0334 16.1905 41.53 19.7658 41.53C22.3929 41.53 23.9131 42.9592 24.7515 44.4444L22.5704 45.5163C22.0706 44.5518 20.9964 43.7835 19.7634 43.7835C17.601 43.7835 16.027 45.4462 16.027 47.6974C16.027 49.9486 17.601 51.6113 19.7634 51.6113C20.9964 51.6113 22.0683 50.8617 22.5704 49.8785L24.7515 50.934C23.8945 52.4169 22.3929 53.8648 19.7658 53.8648C16.1905 53.8648 13.4209 51.3614 13.4209 47.6974Z" fill="white"/>
<path d="M36.6353 53.6498V45.3036L33.2748 53.6498H32.1656L28.8052 45.3036V53.6498H26.2668V41.7284H29.8234L32.7191 48.9303L35.6148 41.7284H39.19V53.6498H36.6353Z" fill="white"/>
<path d="M58.8341 47.6974C58.8341 44.1058 61.4613 41.53 65.0529 41.53C68.6631 41.53 71.2903 44.1035 71.2903 47.6974C71.2903 51.289 68.6631 53.8648 65.0529 53.8648C61.4613 53.8648 58.8341 51.2913 58.8341 47.6974ZM68.6818 47.6974C68.6818 45.4626 67.2527 43.7835 65.0529 43.7835C62.8531 43.7835 61.4426 45.4626 61.4426 47.6974C61.4426 49.9136 62.8554 51.6113 65.0529 51.6113C67.2503 51.6113 68.6818 49.9136 68.6818 47.6974Z" fill="white"/>
<path d="M83.4456 53.6498V45.3036L80.0852 53.6498H78.976L75.6156 45.3036V53.6498H73.0771V41.7284H76.6337L79.5294 48.9303L82.4251 41.7284H86.0004V53.6498H83.4456Z" fill="white"/>
<path d="M12.5099 53.6498V51.415H11.438V41.7284H2.96576L2.26985 47.8234C1.89388 50.969 1.21433 51.4523 0 51.6135V53.6498H12.5099ZM4.78725 48.0009L5.25196 43.9609H8.88093V51.415H3.3394C4.09134 50.7191 4.60977 49.6098 4.78725 48.0009Z" fill="white"/>
<path d="M57.9234 53.6498V51.415H56.8515V41.7284H48.3792L47.681 47.8234C47.305 50.969 46.6255 51.4523 45.4111 51.6135V53.6498H57.9234ZM50.2007 48.0009L50.6654 43.9609H54.2944V51.415H48.7529C49.5048 50.7191 50.0232 49.6098 50.2007 48.0009Z" fill="white"/>
<path d="M44.5377 21.085H42.1418V28.8006H44.5377V21.085Z" fill="white"/>
</svg>
